<svg xmlns="http://www.w3.org/2000/svg" viewBox="0 0 4680 3120"><defs><style>.cls-1,.cls-11{fill:#fff;}.cls-1{opacity:0;}.cls-2{fill:#e9d9ca;}.cls-3{fill:#00988e;}.cls-4{fill:#006d80;}.cls-5{fill:#cfa09a;}.cls-6{fill:#545454;}.cls-7{fill:#91b3fa;}.cls-8{fill:#1b29af;}.cls-9{fill:#9bb8f0;}.cls-10{fill:#96c0f0;}.cls-12{fill:#ff8500;}.cls-13{fill:#19c0e7;}.cls-14{fill:#1999c0;}.cls-15{fill:#312a52;}.cls-16{fill:#9a60a6;}.cls-17{fill:#992e2e;}.cls-18{fill:#fbffff;}.cls-19{fill:#fbc5a9;}.cls-20{fill:#ffd900;}.cls-21{fill:#ff9500;}.cls-22{fill:#ffc9ae;}.cls-23{fill:#303030;}.cls-24{fill:#f7a18a;}.cls-25{fill:#e84b4b;}.cls-26{fill:#c62310;}.cls-27{fill:#d1d3d4;}.cls-28{fill:#fcbe21;}.cls-29{fill:#f1c8aa;}.cls-30{fill:#f1a87f;}.cls-31{fill:#5b1e13;}.cls-32{opacity:0.5;}.cls-33{fill:#f3888a;}.cls-34{fill:#f9692e;}.cls-35{fill:#ff742e;}.cls-36{fill:#ffa900;}.cls-37{fill:#2284b6;}.cls-38{opacity:0.16;}.cls-39{fill:#182e62;}.cls-40{fill:#184462;}.cls-41{fill:#ff2b9a;}.cls-42{fill:#1d2289;}.cls-43{fill:#5153cb;}.cls-44{fill:#3641ab;}.cls-45{fill:#5863d2;}.cls-46{fill:#453b73;}</style></defs><title>07</title><g id="_07" data-name="07"><rect id="_07-2" data-name="07" class="cls-1" width="4680" height="3120"/><path class="cls-2" d="M3837,1389.34C4068.22,930.93,3802.31,271,3183.5,490.44c-722.09,256.07-787.73,131.86-952.88,15.84-330-231.84-1383.26-237.53-1569.46,350.11-218.51,689.59,451,814.47,106.63,920.31-491.85,151.17-565.67,807.94-80.28,875.83l3021.2-4.75s476.6-156.58,304.86-592.58C3890.3,1742.24,3605.69,1847.76,3837,1389.34Z"/><path class="cls-3" d="M4112,1764.89C3818.07,1626.6,3600.44,2604,3600.44,2604l114.84,60.17S4405.86,1903.18,4112,1764.89Z"/><path class="cls-4" d="M4071,1928.58c-19.61,7.87-39.06,16.11-58.42,24.56,21-41.93,42-83.93,62.43-126.16-22.89,41.23-45.32,82.7-67.62,124.23-4.52-17.86-9.12-35.69-14.29-53.39-5.84-20.81-11.94-41.56-18.89-62.09,3.34,21.42,7.54,42.63,12,63.78,4.24,21.21,9.22,42.23,14.23,63.24l.24,1q-14.43,26.91-28.84,53.83l-47.8,90.86c-7.17-22.55-14.48-45.06-22.26-67.43-8.76-25.82-17.81-51.55-27.59-77.06,6.42,26.56,13.56,52.88,21,79.11,7.11,25.87,14.79,51.56,22.64,77.19l-46.89,89.13-32.39,63.17c-6.6-15.58-13.26-31.13-20.29-46.53-4.21-9.16-8.13-18.44-12.58-27.5s-8.62-18.25-13.24-27.24c3,9.66,6.35,19.16,9.58,28.73s6.84,19,10.24,28.46c6.62,18.38,13.62,36.62,20.81,54.77l-52.22,101.82c-7.45-14.79-15-29.54-22.85-44.12-4.59-8.48-8.93-17.08-13.77-25.44s-9.38-16.86-14.38-25.14c3.42,9,7.22,17.91,10.88,26.84s7.66,17.7,11.49,26.54c7.52,17.31,15.37,34.44,23.41,51.49l-3.58,7L3728.32,2489c-15.38-25.54-31.38-50.72-48.92-75,13.24,29.06,28.2,57.13,43.84,84.8l.08.14-.05.11-47.83,97.26,52.06-95.06h0l1-.25q32.43-8.07,64.51-17.5c10.68-3.21,21.35-6.44,31.95-9.92s21.18-7.06,31.66-11.05c-11.09,1.66-22,3.81-33,5.9s-21.83,4.59-32.7,7q-28.82,6.7-57.35,14.45l45.08-84.2,3.74-7.12c26.52-10.23,52.91-20.78,79.08-31.88,26.21-11.35,52.4-22.73,78.07-35.44-27.4,8.33-54.28,18-81.15,27.66-23.25,8.58-46.3,17.63-69.28,26.89l51.95-98.77q39.43-17.52,78.33-36.2c26.17-12.9,52.34-25.8,77.92-40-27.52,9.93-54.44,21.17-81.37,32.41-22.73,9.72-45.28,19.84-67.73,30.18l31.31-59.53,46.05-89.81q45.1-21.33,89.61-43.9c29.83-15.36,59.69-30.68,89-47.22-31.2,12.53-61.81,26.27-92.45,40q-39.66,18.15-78.93,37.13l45.64-89q13.77-27.23,27.42-54.51l1.16-.5q33.8-14.58,67.13-30.25l33.17-16c10.92-5.63,21.95-11,32.74-17-11.71,3.85-23.17,8.25-34.74,12.43Z"/><path class="cls-4" d="M3620.39,2652.88l115,30.23s804.29-281.89,644.67-498.88S3620.39,2652.88,3620.39,2652.88Z"/><path class="cls-3" d="M4285.46,2287.38c-17.41-2-34.85-3.7-52.3-5.19,31.91-22.26,63.77-44.6,95.38-67.31q-49.48,31.53-98.4,63.85c3.76-14.81,7.46-29.63,10.68-44.57,4-17.49,7.72-35,10.77-52.74-6,16.94-11.35,34.06-16.47,51.24-5.3,17.14-10,34.43-14.63,51.73l-.22.83q-21.15,13.92-42.3,27.85l-70.77,47.36c3.69-19.28,7.26-38.58,10.42-58,3.83-22.28,7.39-44.62,10.34-67.08-5.81,21.89-11,43.91-15.95,66-5,21.67-9.6,43.43-14,65.23L4028.6,2413,3980,2446.29c1.34-14,2.63-27.94,3.59-41.95.56-8.34,1.37-16.66,1.7-25s.93-16.7,1.11-25.09c-1.64,8.23-2.94,16.49-4.36,24.74s-2.52,16.53-3.79,24.79c-2.43,16-4.54,32.09-6.48,48.16l-78.31,53.6c.41-13.73.75-27.46.78-41.2,0-8,.24-16,0-24s-.18-16-.55-24c-1.08,8-1.82,15.91-2.68,23.87s-1.41,15.93-2.11,23.89c-1.36,15.59-2.41,31.19-3.28,46.79l-5.38,3.68-66.13,46c-1.12-24.7-2.83-49.38-6-74-1.83,26.42-2,52.8-1.56,79.15v.14l-.08.06-73.31,52,75.52-48.74h0l.83.21q26.84,6.95,54,12.74c9.05,1.88,18.1,3.75,27.21,5.4s18.24,3.22,27.45,4.45c-8.74-3.17-17.57-5.93-26.4-8.74s-17.73-5.28-26.63-7.79q-23.64-6.51-47.51-12.14l66.14-43.57,5.54-3.71c23.38,3,46.79,5.76,70.26,8,23.59,2.07,47.19,4.13,70.93,5-23.27-4.76-46.69-8.35-70.1-11.91-20.34-2.93-40.73-5.44-61.14-7.78l76.91-51.48q35.67,2.82,71.42,4.57c24.18.94,48.36,1.88,72.62,1.63-24-3.63-48.06-6.08-72.13-8.53-20.42-1.89-40.86-3.42-61.31-4.76l46.36-31,69.06-47.28c27.55,1.51,55.11,2.59,82.69,3.41,27.82.59,55.65,1.22,83.53.74-27.7-3.2-55.46-5.28-83.21-7.4q-36.09-2.44-72.22-4.13l68.46-46.86q20.81-14.42,41.54-28.91l1,.09c20.27,1.82,40.57,3.35,60.9,4.48l30.51,1.43c10.2.21,20.38.63,30.6.54-10.06-1.81-20.16-3.14-30.24-4.66Z"/><path class="cls-3" d="M3617.88,1880.24c-261.56-12.2-56.18,790.37-56.18,790.37l104.51.39S3879.45,1892.44,3617.88,1880.24Z"/><path class="cls-4" d="M3622.35,2206.67c15.26-15.31,30.41-30.72,45.23-46.47,15.18-15.89,30.19-32,44.77-48.47-16.58,14.5-32.73,29.42-48.7,44.52-14,13-27.66,26.3-41.27,39.67l.18-82.77q-.09-24.62-.28-49.23l.56-.63c11.49-13.08,23-26.19,34-39.7s22.12-26.94,32.58-40.95c-12.7,12-24.86,24.51-36.87,37.13-10.35,10.67-20.35,21.65-30.3,32.67-.25-38-.6-76-1.38-114-1.33,37.81-2.24,75.62-3.05,113.43-10.61-13.32-21.36-26.52-32.38-39.52l-19.4-22.48c-6.66-7.34-13.18-14.8-20.07-21.95,5.45,8.31,11.27,16.32,16.93,24.45l17.6,23.92q17.81,23.76,36.44,46.85l.64.8q-.51,24.59-1,49.18l-1,80.63q-20.84-28.32-42.26-56.2c-16.67-21.31-33.31-42.64-50.82-63.32,14.62,22.81,30.13,45,45.6,67.17q23.29,32.81,47.32,65.06l-1,81.35-.12,54.23q-18.15-23.75-36.89-47c-15-18.15-29.91-36.31-45.77-53.76,12.87,19.76,26.66,38.82,40.45,57.87q20.64,28,42.18,55.32l-.2,90c-12.88-15.25-25.9-30.39-39.24-45.26-15.5-17-31-34-47.41-50.3,13.5,18.73,27.89,36.71,42.28,54.68,14.47,17.77,29.31,35.24,44.35,52.52l0,6.49.4,77q-17.45-16.24-35.43-31.9c-6.83-5.84-13.67-11.67-20.65-17.34s-14-11.28-21.3-16.65c6,6.79,12.19,13.28,18.39,19.81s12.64,12.8,19,19.11q19.33,18.78,39.38,36.78l.62.56h0l1.28,87.36,2.57-87.34v-.09l.11-.07c21.57-13.83,42.81-28.19,63.2-43.91-21.65,10.69-42.55,22.61-63.13,35l1.56-78.29.08-6.32c12.15-9.12,24.21-18.37,36.08-27.87,6.07-4.86,12.26-9.55,18.2-14.59s12-9.87,17.86-15c-6.68,4-13.16,8.31-19.72,12.5s-12.93,8.62-19.4,12.94c-11.1,7.43-22,15.1-32.91,22.83l1.16-92.24q17.94-15.33,35.47-31.19c6-5.48,12.16-10.77,18-16.42s11.89-11.1,17.66-16.87c-6.69,4.67-13.15,9.6-19.7,14.42s-12.88,9.92-19.33,14.87c-10.82,8.32-21.43,16.89-32,25.51l.72-57.23Z"/><path class="cls-4" d="M3243,2040.24c-195.53,94.49,271.42,598.47,271.42,598.47l76.36-41S3438.49,1945.75,3243,2040.24Z"/><path class="cls-3" d="M3507.87,2528.28l.06-.1c10.26-18.61,20.07-37.47,28.72-57-11.56,16.36-22.09,33.31-32.19,50.49l-29.8-57.69-2.44-4.65c5.26-11.45,10.39-23,15.29-34.58,2.5-5.94,5.17-11.8,7.5-17.82s4.86-11.95,7.09-18c-3.29,5.58-6.32,11.26-9.44,16.91s-6,11.4-9,17.1c-5.16,9.81-10.09,19.72-15,29.66l-35.61-67.71c4.68-12.19,9.22-24.43,13.53-36.76,2.21-6.37,4.61-12.66,6.65-19.1s4.28-12.79,6.2-19.27c-3,6-5.79,12.19-8.66,18.3s-5.47,12.32-8.22,18.47c-4.6,10.35-8.94,20.79-13.25,31.25l-22.09-42-32-59.26c5.07-17.19,10-34.42,14.6-51.76,4.79-17.59,9.39-35.24,13.49-53-6.36,17.12-12.23,34.38-17.91,51.71-5,15-9.78,30.1-14.41,45.23l-32.59-60.42q-9.78-17.91-19.65-35.78l.15-.68c3.21-14.08,6.39-28.17,9.07-42.38,2.83-14.17,5.49-28.38,7.57-42.73-4.5,13.78-8.43,27.69-12.2,41.65-3.33,11.86-6.28,23.82-9.18,35.79-15.2-27.61-30.48-55.18-46.07-82.58,14,28.09,28.26,56,42.61,83.9-13-5.51-26.06-10.89-39.23-16l-23-8.73c-7.76-2.72-15.45-5.58-23.3-8.08,7.25,3.91,14.66,7.45,22,11.14l22.29,10.48q22.36,10.29,45.09,19.76l.78.33q9.35,18.13,18.7,36.25l31.13,59.2q-26.38-12.42-53-24.27c-20.57-8.95-41.13-17.93-62.08-26.09,19.69,10.86,39.75,20.89,59.81,31q29.94,14.7,60.21,28.72l31.4,59.73,21.35,39.58c-15.08-6.76-30.23-13.37-45.49-19.71-18.08-7.33-36.16-14.65-54.62-21.11,17.19,9.32,34.78,17.77,52.36,26.21q26.13,12.26,52.62,23.66l35.42,65.67c-15.43-6-30.91-11.92-46.5-17.5-18-6.28-36.07-12.55-54.45-17.93,17.25,8.32,34.84,15.75,52.44,23.16,17.57,7.24,35.29,14.11,53.09,20.77l2.55,4.73,30.72,56q-19.14-5-38.44-9.26c-7.29-1.56-14.58-3.1-21.91-4.48s-14.69-2.68-22.11-3.71c7,2.59,14.14,4.86,21.24,7.17s14.27,4.34,21.43,6.41q21.51,6,43.25,11.25l.67.16h0l35.47,63.19-32.65-64.69Z"/><path class="cls-3" d="M821.7,1573.72c-444.87,24.61-18.29,1051-18.29,1051l145.26-16S1266.57,1549.11,821.7,1573.72Z"/><path class="cls-4" d="M1001,1873.23c-27.08,38.5-53.22,77.59-79.17,116.8-23,34.5-45.24,69.48-67.75,104.29L842,1899.14l.09-.15c19.11-30.16,38.21-60.32,56.58-91s36.81-61.21,54.16-92.49c-21.11,28.88-41.24,58.38-61.2,88-17.32,25.47-34.07,51.31-50.77,77.18l-.42-6.77c-5.35-79-10.88-157.94-17.62-236.84,2.21,79.16,5.62,158.24,9.21,237.31l.26,5.17c-18.54-25.62-37.18-51.17-56.33-76.35L742.21,1759c-11.59-14.51-22.85-29.25-34.7-43.56,9.8,15.79,20.19,31.15,30.27,46.75l31.23,46c20.87,30.67,42.39,60.88,64,91l.3.42,10,194.62-35.9-45.94c-15.63-19.78-30.94-39.81-46.84-59.38L713,1930.09c-16.16-19.38-32-39-48.44-58.14,14.4,20.72,29.39,41,44.07,61.51l45,60.78c14.94,20.32,30.48,40.17,45.68,60.28l44.87,58.65,12.51,202-31.13-37.72c-13.65-16.34-26.94-33-40.89-49.07l-41.48-48.57c-14.15-15.94-28-32.12-42.4-47.84,12.46,17.31,25.48,34.16,38.19,51.26l39.1,50.51c12.91,16.95,26.48,33.35,39.7,50l39.92,49.84.15.18.91,14.73L867.06,2467c3.15,39.46,5.92,78.94,9.4,118.39-1-39.59-2.69-79.13-4-118.69l-5.17-118.63-.76-14.74.11-.17,33.44-52.61c11.09-17.58,22.45-35,33.18-52.78,21.84-35.37,43.51-70.84,64.18-107-24.46,33.67-47.92,68-71.22,102.41-11.83,17.09-23,34.59-34.52,51.91l-26.12,39.69L855.2,2112.61c24.51-39.39,49.54-78.46,73.59-118.15C953.3,1954.33,977.62,1914.08,1001,1873.23Z"/><path class="cls-4" d="M1306,1934c-290.58-123.82-341.1,662.51-341.1,662.51l97.36,35.38S1596.57,2057.82,1306,1934Z"/><path class="cls-3" d="M1217,2147.21c21.6-13.19,43.2-26.38,64.49-40.1s42.6-27.38,63.43-41.83c-22.47,11.74-44.52,24.19-66.5,36.77-19,10.77-37.75,21.94-56.47,33.16l1.85-4.44c21.36-51.89,42.59-103.84,63-156.11-23.41,51-46,102.37-68.54,153.77l-1.45,3.37c-3.76-22.1-7.6-44.19-11.88-66.2l-7.58-38.72c-2.81-12.86-5.35-25.76-8.4-38.58,1.28,13.12,3.07,26.14,4.59,39.22l5.42,39.07c3.66,26,7.87,52,12.15,77.93l.06.37-54.67,126.86-8.43-40.46c-3.74-17.48-7.19-35-11.17-52.44l-11.73-52.32c-4.21-17.38-8.14-34.82-12.58-52.16,2.66,17.7,5.83,35.29,8.74,52.94l9.58,52.76c3.13,17.6,6.78,35.09,10.15,52.64l10.14,51.36-55.38,132.39-8-33.75c-3.55-14.67-6.78-29.41-10.61-44l-11.15-43.89c-4-14.57-7.73-29.2-12-43.71,2.5,14.91,5.49,29.7,8.22,44.56l9,44.38c2.89,14.82,6.38,29.5,9.55,44.25l9.76,44.21,0,.16-4,9.66-31.89,77.89c-10.37,26.08-21,52.05-31.14,78.22,11.78-25.48,23.1-51.15,34.66-76.72l33.89-77.05,4.15-9.61.12-.08,37.75-23c12.56-7.7,25.24-15.19,37.65-23.15,25-15.64,49.87-31.41,74.33-47.89-26.1,13.74-51.78,28.21-77.39,42.79-12.88,7.15-25.49,14.77-38.22,22.18l-29,17.05,56.8-131.83c27.94-17.36,56.1-34.36,83.83-52.05,28.17-17.83,56.24-35.81,83.91-54.45-29.28,16-58.15,32.65-86.94,49.45-25.44,14.73-50.55,30-75.78,45.07l53.5-127.9Z"/><path class="cls-4" d="M364.8,1928.25c-305.42,150.83,302.58,744.47,302.58,744.47l97.34-54.82S670.22,1777.43,364.8,1928.25Z"/><path class="cls-3" d="M629.26,2459.07l-5-10.14,0-.16,7.71-47c2.53-15.68,5.29-31.32,7.5-47.06,4.73-31.43,9.33-62.87,13-94.47-7.09,31-13.29,62.18-19.34,93.38-3.19,15.57-5.82,31.24-8.69,46.86l-6.45,35.75-68-139.09c5.41-35.05,11.28-70,16.28-105.16,5.19-35.57,10.2-71.17,14.38-106.91-7.48,35.19-14.13,70.53-20.6,105.89-5.82,31.16-11,62.43-16.34,93.66L476.73,2151l0-.13c4.38-26.94,8.76-53.88,12.48-80.93s7.52-54.09,10.32-81.3c-6.17,26.64-11.47,53.43-16.61,80.25-4.54,23.11-8.56,46.3-12.54,69.5l-2.33-4.63C440.61,2079.81,413,2026,384.6,1972.5c25.31,55,51.44,109.58,77.7,164.1l1.74,3.55c-20.73-12.45-41.51-24.82-62.53-36.78l-37-21c-12.5-6.73-24.84-13.71-37.47-20.22,11.63,8.16,23.55,15.85,35.31,23.79l35.79,23c23.88,15.3,48.07,30.08,72.31,44.79l.34.21,65.41,133.85-39-21.53c-16.93-9.21-33.7-18.7-50.76-27.69l-51.06-27.15c-17.17-8.77-34.21-17.8-51.51-26.34,16.35,10.25,33,20,49.45,30l49.91,29.22c16.6,9.8,33.48,19.1,50.21,28.67l49.15,27.77L612,2439.1l-33.22-17.18c-14.5-7.39-28.83-15.1-43.47-22.23L491.56,2378c-14.73-7-29.32-14.18-44.17-20.91,13.95,8.43,28.16,16.37,42.24,24.58l42.65,23.78c14.16,8,28.62,15.5,42.93,23.27l43,23.06.16.08,5.06,10.09,41.34,80.81c14.06,26.8,27.86,53.73,42.14,80.42-12.57-27.53-25.64-54.83-38.44-82.25Z"/><ellipse class="cls-5" cx="2218.01" cy="2652.88" rx="1761.24" ry="107.12"/><path d="M2605.1,440.39H1804.72a170.42,170.42,0,0,0-170,170V2513.1a167.58,167.58,0,0,0,8.39,52.58c22.25,68,86.43,117.43,161.62,117.43H2605.1c75.19,0,139.37-49.44,161.62-117.43a167.58,167.58,0,0,0,8.39-52.58V610.34A168.94,168.94,0,0,0,2746,515.4C2715.32,470.25,2663.51,440.39,2605.1,440.39Z"/><rect class="cls-6" x="1603.78" y="446.08" width="1116.18" height="2232.35" rx="164.73"/><rect class="cls-6" x="1610.78" y="453.04" width="1102.18" height="2216.79" rx="164.28"/><path class="cls-7" d="M2545.8,508.63H2410.46v12A66.47,66.47,0,0,1,2344,587.09H1967a70.29,70.29,0,0,1-70.3-70.3v-8.16H1778.15A115.86,115.86,0,0,0,1662.3,624.5V2498.31a115.79,115.79,0,0,0,115.85,115.86H2545.8a115.86,115.86,0,0,0,115.86-115.86V624.5A115.87,115.87,0,0,0,2545.8,508.63Z"/><path d="M2223.32,506.24H2100.64a11.7,11.7,0,1,0,0,23.39h122.68a11.7,11.7,0,1,0,0-23.39Z"/><path d="M2042.07,501.12a15.08,15.08,0,1,0,15.07,15.07A15,15,0,0,0,2042.07,501.12Z"/><path d="M2042.07,508a8.18,8.18,0,1,0,8.17,8.17A8.16,8.16,0,0,0,2042.07,508Z"/><path class="cls-6" d="M2751.63,894.52a11.71,11.71,0,0,0-11.7,11.69V1072a11.7,11.7,0,0,0,23.39,0V906.21A11.7,11.7,0,0,0,2751.63,894.52Z"/><path class="cls-6" d="M2751.63,1162a11.71,11.71,0,0,0-11.7,11.69v165.82a11.7,11.7,0,1,0,23.39,0V1173.71A11.7,11.7,0,0,0,2751.63,1162Z"/><rect class="cls-6" x="2719.96" y="667.65" width="55.15" height="27.42"/><rect class="cls-8" x="2719.96" y="2430.48" width="55.15" height="27.42"/><polygon class="cls-9" points="1662.3 1629.3 2661.66 1059.14 2661.66 838.13 1662.3 1372.49 1662.3 1629.3"/><path class="cls-10" d="M1662.3,2498.31a116.77,116.77,0,0,0,1.76,20.18l997.6-569.15V1305.92L1662.3,1840.29Z"/><rect class="cls-11" x="1736.1" y="634.3" width="853.89" height="909.05" rx="49.98"/><path class="cls-12" d="M1871.42,752.72h591.26a19,19,0,0,1,19,19V970.28a19,19,0,0,1-19,19H1871.42a19,19,0,0,1-19-19V771.76a19,19,0,0,1,19-19Z"/><rect class="cls-11" x="2234.76" y="921.04" width="50.85" height="33.39"/><rect class="cls-11" x="2234.76" y="881.6" width="50.85" height="33.39"/><rect class="cls-11" x="2234.76" y="842.16" width="50.85" height="33.39"/><rect class="cls-11" x="2234.76" y="802.71" width="50.85" height="33.39"/><rect class="cls-11" x="2175.88" y="921.04" width="50.85" height="33.39"/><rect class="cls-11" x="2175.88" y="881.6" width="50.85" height="33.39"/><rect class="cls-11" x="2175.88" y="842.16" width="50.85" height="33.39"/><rect class="cls-11" x="1997.55" y="921.04" width="50.85" height="33.39"/><rect class="cls-11" x="1997.55" y="881.6" width="50.85" height="33.39"/><rect class="cls-11" x="1997.55" y="842.16" width="50.85" height="33.39"/><rect class="cls-11" x="2116.07" y="921.04" width="50.85" height="33.39"/><rect class="cls-11" x="2116.07" y="881.6" width="50.85" height="33.39"/><rect class="cls-11" x="2116.07" y="842.16" width="50.85" height="33.39"/><rect class="cls-11" x="2116.07" y="802.71" width="50.85" height="33.39"/><rect class="cls-11" x="2057.19" y="921.04" width="50.85" height="33.39"/><rect class="cls-11" x="2353.45" y="921.04" width="50.85" height="33.39"/><rect class="cls-11" x="2057.19" y="881.6" width="50.85" height="33.39"/><rect class="cls-11" x="2293.64" y="921.04" width="50.85" height="33.39"/><rect class="cls-11" x="2293.64" y="881.6" width="50.85" height="33.39"/><rect class="cls-11" x="1939.44" y="921.04" width="50.85" height="33.39"/><rect class="cls-11" x="1939.44" y="881.6" width="50.85" height="33.39"/><circle class="cls-13" cx="1978.67" cy="1194.14" r="105.62" transform="translate(-165.73 332.37) rotate(-9.22)"/><path class="cls-14" d="M2015.24,1166.28a46.43,46.43,0,0,1,10.13,28.25h49.26a95.57,95.57,0,0,0-23.53-62.13Z"/><path class="cls-14" d="M1981.47,1148.69a46.41,46.41,0,0,1,25.49,9.47l36-34.05a95.5,95.5,0,0,0-62.2-24.71Z"/><path class="cls-14" d="M1913,1125.33l35.34,34.45a46.63,46.63,0,0,1,21.51-10.35l-.67-49.61A95.55,95.55,0,0,0,1913,1125.33Z"/><path class="cls-14" d="M1882.72,1194.53H1932a46.52,46.52,0,0,1,8.58-26.19l-35.47-34.59A95.55,95.55,0,0,0,1882.72,1194.53Z"/><path class="cls-15" d="M1979.92,1189.8l-56.45-19.15a5.7,5.7,0,1,0-3.65,10.79l56.44,19.14a5.69,5.69,0,1,0,3.66-10.78Z"/><circle class="cls-13" cx="2342.46" cy="1194.14" r="105.62" transform="translate(-158.3 2006.13) rotate(-45)"/><path class="cls-14" d="M2379,1166.28a46.42,46.42,0,0,1,10.12,28.25h49.26a95.51,95.51,0,0,0-23.52-62.13Z"/><path class="cls-14" d="M2345.26,1148.69a46.35,46.35,0,0,1,25.49,9.47l36-34.05a95.52,95.52,0,0,0-62.2-24.71Z"/><path class="cls-14" d="M2276.83,1125.33l35.34,34.45a46.59,46.59,0,0,1,21.51-10.35l-.67-49.61A95.55,95.55,0,0,0,2276.83,1125.33Z"/><path class="cls-14" d="M2246.52,1194.53h49.25a46.44,46.44,0,0,1,8.58-26.19l-35.48-34.59A95.49,95.49,0,0,0,2246.52,1194.53Z"/><path class="cls-15" d="M2365.41,1131.45a5.71,5.71,0,0,0-7.33,3.33l-20.91,55.82a5.69,5.69,0,0,0,10.66,4l20.91-55.81A5.71,5.71,0,0,0,2365.41,1131.45Z"/><path class="cls-13" d="M2160.39,1113.08a13.06,13.06,0,1,0,13.06,13.06A13.06,13.06,0,0,0,2160.39,1113.08Z"/><path class="cls-13" d="M2160.39,1157.76a13.06,13.06,0,1,0,13.06,13.06A13.06,13.06,0,0,0,2160.39,1157.76Z"/><path class="cls-13" d="M2160.39,1202.43a13.06,13.06,0,1,0,13.06,13.06A13.06,13.06,0,0,0,2160.39,1202.43Z"/><path class="cls-13" d="M2160.39,1247.11a13.06,13.06,0,1,0,13.06,13.05A13.06,13.06,0,0,0,2160.39,1247.11Z"/><path class="cls-13" d="M2405.85,1367.61a32.49,32.49,0,0,0-32.49,32.49h0a32.49,32.49,0,0,0,65,0h0A32.49,32.49,0,0,0,2405.85,1367.61Z"/><path class="cls-13" d="M2307.78,1367.61a32.49,32.49,0,0,0-32.49,32.49h0a32.49,32.49,0,1,0,65,0h0A32.49,32.49,0,0,0,2307.78,1367.61Z"/><path class="cls-14" d="M2209.71,1367.61h0a32.49,32.49,0,0,0-32.49,32.49h0a32.49,32.49,0,0,0,32.49,32.49h0a32.49,32.49,0,0,0,32.49-32.49h0A32.49,32.49,0,0,0,2209.71,1367.61Z"/><path class="cls-13" d="M2111.64,1367.61a32.49,32.49,0,0,0-32.49,32.49h0a32.49,32.49,0,0,0,65,0h0A32.49,32.49,0,0,0,2111.64,1367.61Z"/><path class="cls-13" d="M2013.57,1367.61h0a32.49,32.49,0,0,0-32.49,32.49h0a32.48,32.48,0,0,0,32.49,32.49h0a32.49,32.49,0,0,0,32.49-32.49h0A32.49,32.49,0,0,0,2013.57,1367.61Z"/><path class="cls-14" d="M1915.5,1367.61A32.49,32.49,0,0,0,1883,1400.1h0a32.49,32.49,0,0,0,65,0h0A32.49,32.49,0,0,0,1915.5,1367.61Z"/><rect class="cls-11" x="2099.88" y="1994.68" width="14" height="201.41"/><path class="cls-16" d="M2314.51,1704.82H2011.58a146.12,146.12,0,1,0,0,292.24h302.93a146.12,146.12,0,1,0,0-292.24Z"/><rect class="cls-17" x="1932.42" y="2196.09" width="328.76" height="161.43" rx="59.78"/><rect class="cls-18" x="2002.78" y="2238.75" width="190.85" height="21.87"/><rect class="cls-18" x="2002.78" y="2284.47" width="190.85" height="21.87"/><rect class="cls-11" x="1994.37" y="1808.04" width="240.69" height="81.99"/><rect class="cls-11" x="2249.86" y="1808.04" width="25.15" height="81.99"/><rect class="cls-11" x="2287.61" y="1808.04" width="25.15" height="81.99"/><rect class="cls-11" x="2325.36" y="1808.04" width="25.15" height="81.99"/><rect class="cls-11" x="2363.11" y="1808.04" width="25.15" height="81.99"/><polygon class="cls-11" points="2032.12 1949.89 2032.12 1748.18 1931.26 1849.03 2032.12 1949.89"/><path class="cls-19" d="M673.74,2471.61s-9.09,42.13,21.09,54.15c30.51,12.15,50.32-3.91,50.32-3.91l72.41-76.72-85.21-62Z"/><path class="cls-20" d="M838.06,2615.11c-15.68-8.14-33.37-17.52-46.56-35.18-7.22-9.68-18.41-47.77-23.24-65a9.79,9.79,0,0,0-10.67-7.11c-20.05,2.57-70.17,4-82.19-43.74a7,7,0,0,0-11.67-3.1l-48.33,48.72-1.79,1.79a13.49,13.49,0,0,0-.17,18.81l115.74,121.24,131.34-.17s3.22-7-.78-16.12C857,2629,850.9,2621.78,838.06,2615.11Z"/><path class="cls-21" d="M735.73,2630.57c-11.48-1.15-97.26-95.33-120.33-120.86l-1.79,1.79a13.49,13.49,0,0,0-.17,18.81l115.74,121.24,131.34-.17s3.22-7-.78-16.12C824.69,2634.16,746,2631.59,735.73,2630.57Z"/><path class="cls-11" d="M788.6,2562.05c-15.4-5.75-35.3-6.7-49.44,2.51-.55.36,0,1.14.51,1.06a227.39,227.39,0,0,1,48.51-1.57A1,1,0,0,0,788.6,2562.05Z"/><path class="cls-11" d="M798.88,2571c-15.4-5.75-35.3-6.7-49.44,2.51-.55.36,0,1.14.51,1.06a227.39,227.39,0,0,1,48.51-1.57A1,1,0,0,0,798.88,2571Z"/><path class="cls-11" d="M809.16,2579.91c-15.4-5.75-35.3-6.7-49.44,2.52-.55.35,0,1.13.51,1.05a228.12,228.12,0,0,1,48.52-1.57A1,1,0,0,0,809.16,2579.91Z"/><path class="cls-11" d="M819.44,2588.84c-15.4-5.75-35.29-6.7-49.44,2.52-.55.35,0,1.13.51,1.06a227.49,227.49,0,0,1,48.52-1.58A1,1,0,0,0,819.44,2588.84Z"/><polygon class="cls-22" points="1334.88 2586.68 1422.89 2586.68 1441.51 2457.77 1339.57 2457.77 1334.88 2586.68"/><path class="cls-20" d="M1584.51,2627.6c-10.8-16-91-40.35-115.88-51.14-11.2-4.86-21.3-12.91-28.09-19.13a13.1,13.1,0,0,0-17.06-.64c-16.87,13.84-51.43,22.79-84.57.76a9.54,9.54,0,0,0-14.63,6l-12.47,67.15-3.23,17.4a3.91,3.91,0,0,0,3.83,4.72l269.82.08a3.89,3.89,0,0,0,3.91-3.52,93.23,93.23,0,0,0,.35-13.27C1586.28,2632.51,1585.72,2629.38,1584.51,2627.6Z"/><path class="cls-21" d="M1533.2,2640.65c-27.11,2.54-181.75-7.46-221.39-10.08l-3.23,17.4a3.91,3.91,0,0,0,3.83,4.72l269.82.08a3.89,3.89,0,0,0,3.91-3.52,93.23,93.23,0,0,0,.35-13.27C1572.37,2637,1551.6,2638.93,1533.2,2640.65Z"/><path class="cls-11" d="M1502.55,2580.71c-16.36-1.62-35.84,2.54-47.16,15.06-.44.49.25,1.1.76.89a227.9,227.9,0,0,1,46.51-13.91A1,1,0,0,0,1502.55,2580.71Z"/><path class="cls-11" d="M1514.77,2586.72c-16.36-1.62-35.84,2.53-47.16,15.06-.44.48.26,1.1.76.89a227.27,227.27,0,0,1,46.51-13.91A1,1,0,0,0,1514.77,2586.72Z"/><path class="cls-11" d="M1527,2592.73c-16.36-1.62-35.84,2.53-47.16,15.06-.44.48.26,1.1.76.89a227.27,227.27,0,0,1,46.51-13.91A1,1,0,0,0,1527,2592.73Z"/><path class="cls-11" d="M1539.21,2598.74c-16.36-1.63-35.84,2.53-47.16,15.06-.44.48.26,1.1.77.89a227,227,0,0,1,46.5-13.91A1,1,0,0,0,1539.21,2598.74Z"/><path class="cls-23" d="M1441.35,1342.1l-238.53,3.3,99.56,639-26.07,580.79c59.71,14.76,158.55,3.83,218-11.51,0,0,51.08-471.43,43.1-637.18C1530.23,1767.24,1441.35,1342.1,1441.35,1342.1Z"/><path class="cls-23" d="M955.32,1950,622.2,2392.92c36.65,45.14,135.6,124.71,204.77,156.8,0,0,346.16-424,380.7-559.68,43.18-169.49,130.47-651.73,130.47-651.73l-319.27-21Z"/><path d="M1404.42,1871l-3-21.42-3.11-21.41-6.25-42.82-6.38-42.8q-3.18-21.4-6.48-42.79-6.53-42.79-13.46-85.52,4.71,43,9.88,86,2.52,21.49,5.18,43l5.29,43,5.42,42.94,2.72,21.46,2.79,21.46c3.72,28.45,7.34,56.92,11.21,85.35l0-.44,0,.9-.06-.46-5.09,60.89-4.92,61.35c-3.32,40.9-6.36,81.82-9.47,122.73s-6,81.85-8.7,122.8-5.42,81.89-7.67,122.87c4.42-40.8,8.42-81.64,12.34-122.49s7.63-81.72,11.32-122.58,7.19-81.75,10.54-122.65l5.09-61.33,4.88-61.35,0-.46-.06-.44C1412.6,1928.16,1408.46,1899.61,1404.42,1871Z"/><path d="M1408.22,1957l0,.44.06.46Z"/><polygon points="1136.46 2024.5 1135.95 2025.08 1135.67 2025.79 1136.46 2024.5"/><path d="M1215,1825.33c-13.43,33.33-26.63,66.75-39.89,100.15l-19.77,50.14L1136,2025.08l.51-.58-.79,1.29.28-.71-77.61,87.17-38.89,44q-19.46,22-38.82,44.08l-38.72,44.18-38.58,44.3c-25.63,29.62-51.29,59.21-76.63,89.09,26.82-28.56,53.32-57.4,79.85-86.21l39.65-43.35,39.51-43.46q19.78-21.72,39.42-43.56l39.34-43.62,78.35-87.55.51-.57.28-.71,19.52-50.25,19.45-50.26c12.89-33.55,25.83-67.07,38.55-100.68s25.45-67.21,38.07-100.86,25.09-67.35,37.32-101.15c-13.92,33.14-27.53,66.4-41.12,99.67S1228.36,1792,1215,1825.33Z"/><path d="M1379.65,1610.32c-28.17,2.37-56.15,8.46-83.13,15.38a.83.83,0,1,0,.41,1.6c27.83-4.32,56.07-8.09,83.53-13.85C1382.61,1613,1381.81,1610.14,1379.65,1610.32Z"/><path d="M1374.69,1444.13c.19,27.57-1.57,51.83-3.9,77.6-1.08,12-10.7,78.08-31.45,73.26-3.47-.81-5.24-4.23-5.79-9.46-.65-6.3,1.72-14,2.76-20.28,2.3-13.84,4.15-27.72,5.34-41.71,2.22-26.09,2.33-52.19-.85-78.21a.67.67,0,0,0-1.33.07c0,36.13-.92,72.19-6.32,108-2.6,17.19-11.26,43.08,6.73,45.73,18.32,2.7,30.17-40.67,32.4-52.53,6.24-33.11,6.49-68.85,3.87-102.34C1376.09,1443.44,1374.68,1443.26,1374.69,1444.13Z"/><path d="M1339.9,1596.77a110.12,110.12,0,0,0-4.67,13.71c-1,3.6-2.35,7.5-1.94,11.26.08.73,1,.8,1.44.31,2.43-3.09,3.46-7.31,4.82-11,1.57-4.23,3.25-8.44,4.7-12.72C1345.22,1595.52,1341.05,1594,1339.9,1596.77Z"/><path d="M1193.67,1397.44c-1.48,4.54-4.27,9.06-6.29,13.41-1.73,3.71-3.42,7.43-5.1,11.17q-5.21,11.55-10.19,23.19c-5.57,13.08-11.44,26.7-23,35.67-10.24,8-22.91,12.15-35.42,14.91-6.65,1.47-13.35,2.65-20.07,3.72-8.32,1.32-17.05,2-25.21,4.08a1.12,1.12,0,0,0,.24,2.19c7.83,1,16.18.26,24-.18,6.34-.36,12.7-.81,19-1.61,22-2.78,44-10.67,56.3-30.26,6.72-10.71,10.24-23.19,14.19-35.1,2.2-6.62,4.22-13.32,6.29-20,1.16-3.74,2.23-7.5,3.36-11.24,1-3.18,1.52-6.63,2.83-9.66C1195,1397.13,1193.88,1396.78,1193.67,1397.44Z"/><path class="cls-19" d="M1956.71,715.78c-5.13-3.91-91.25,5.17-110.52,15.69-13.54,7.39-42.1,35.1-57.87,50.91-6.67,6.68-26.07,27.74-26.07,27.74s13.07,24.65,27.67,41.78c9.58,11.24,30.71,28.49,30.71,28.49,12.53,5.71,24.47.67,33.76-6.51a88.75,88.75,0,0,0,18.48-20.33c-3.89,7.74,2.77,13.8,2.77,13.8,7.43,9.72,23.72-12.55,27.45-22.76s-1.51-26.36-1.51-26.36c12.37-16.23-1.09-33.65-1.09-33.65s11-3.34,10.29-12.44-24.31-18.53-24.31-18.53,60.41-17.86,67.74-20.38S1961.83,719.68,1956.71,715.78Z"/><path class="cls-24" d="M1956.71,715.78c-3.78,19.73-53.58,20.33-89.1,29.57s-47.39,26.45-47.39,26.45,39-19.23,66.25-18.19c0,0,60.41-17.86,67.74-20.38S1961.83,719.68,1956.71,715.78Z"/><path class="cls-24" d="M1875,838.09c-6.76.1-7.16-16.91,3-24s22.52-29.55,22.52-29.55-17.76,1.26-35.51,26.13-51.92,15.64-51.92,15.64,21.39,11.37,41.93,6c9.45-2.46,4,22,16.17,18.28,21.19-6.48,30.42-32.41,30.42-32.41C1888.49,837.32,1881.71,838,1875,838.09Z"/><path class="cls-25" d="M1290.61,1369.13c3.39,11,74.51,95.28,182,103.72-1.7-47-17.34-161-17.34-161Z"/><path class="cls-25" d="M1604.8,1002.09s-85.65-183.77-120.07-217.45-135.45-38.8-135.45-38.8-1.46-6.6-8.79-17.58-35.14-13.18-35.14-13.18l-3.66,45.39c-20.5,17.58-9.52,45.41-9.52,45.41,22,82-1.56,563.25-1.56,563.25,65.89,44.66,166.43-13.8,166.43-13.8l-.62-70.58-1.05-120.92,0-10,0-11.9c.28,2.72.65,5.41,1.11,8,0,0,100.51,121.2,180.27,90.13a85.15,85.15,0,0,0,18.35-10.43c60.15-43.39,144.9-182.49,186-254,12.56-28.51,23.82-42.76,24.32-43.38v0c-2.19-16.84-106.27-126.36-106.27-126.36Z"/><path class="cls-25" d="M1284.94,1090.21l-49.49-3.46-18.22-1.27s13.64-127.56,7.87-205.77-7.35-92.92-7.35-92.92l-4.2-80.84s-49.35-12.59-58.79-6.82-25.2,33.59-25.2,33.59-98.69-23.1-143.84,37.8c-31.37,42.33-99.14,165.68-140.28,272.15,0,.09-.07.18-.11.29-18,46.58-30.87,89.92-33.36,121.79-5.6,71.69.18,135.84,89.76,152.76,41.65,7.85,71.18,6.84,89.22,4.37a0,0,0,0,0,0,0c14.47-2,21.54-4.89,21.54-4.89l3.15,42s87.14,3.16,166.41-27.3c0,0,14.16-56.16,16.79-79.26,0,0,29.57-12.36,58.65-25.11,22.46-9.86,44.64-20,52.64-24.76,0,0,0-21.58-8.32-63.56C1295.32,1106.21,1284.94,1090.21,1284.94,1090.21Z"/><path class="cls-26" d="M1067.17,928.11l-9.31,169c34.75-14.35,159.36-11.6,159.36-11.6s-105.73-20.12-115.55-30.7S1067.17,928.11,1067.17,928.11Z"/><path class="cls-26" d="M924.48,1086.75l80.11-242.54S909.26,962.18,924.48,1086.75Z"/><path class="cls-26" d="M1129.56,732.72c-16,83.33,60,139.73,61.66,140.3s26.53-86.23,26.53-86.23l-40.22,50.86C1126.76,795.44,1129.56,732.72,1129.56,732.72Z"/><path class="cls-26" d="M1604.8,1002.09l-36.21,53c2.57-2.89,172.1-193.71,188.93-182.08s92.56,42.68,92.56,42.68c-2.2-16.84-90.79-109.83-90.79-109.83Z"/><path class="cls-26" d="M1631.29,1231c-71.84-8.22-120.25-95.6-128.46-155.07s-37.94-212.07-37.94-212.07l-9.44,278.11c.28,2.72.65,5.41,1.11,8,0,0,100.51,121.2,180.27,90.13a85.15,85.15,0,0,0,18.35-10.43A75.57,75.57,0,0,1,1631.29,1231Z"/><path class="cls-26" d="M1331.77,818.33l-30.08-57.85,21.44,78.36c75.56-26.44,26.15-93,26.15-93C1373.27,801.24,1331.77,818.33,1331.77,818.33Z"/><path class="cls-25" d="M982.3,1480.27c.59,4.92,56.75-17.63,114.56-46.15,71.87-35.47,83.25-94.3,85.2-102.45l-169.56-30.29Z"/><path class="cls-11" d="M1217.75,786.8s1.57,14.69,7.35,92.91c2.64,35.78,1.22,81.91-1.11,121.41-2.75,46.83-6.76,84.36-6.76,84.36l18.22,1.27,49.49,3.46s6.32,9.73,12.17,29.55c1.93-53.17,3.42-109.54,3.63-160.22.28-69.64-1.84-128.55-8.57-153.67,0,0-11-27.82,9.52-45.39l3.66-45.4-91.8-9.13Z"/><path class="cls-27" d="M1300.74,959.54c-17.34,18.56-42.75,37.3-76.75,41.58-2.75,46.83-6.76,84.36-6.76,84.36l18.22,1.27,49.49,3.46s6.32,9.73,12.17,29.55C1303.17,1075,1300.53,1010.22,1300.74,959.54Z"/><polygon class="cls-27" points="1182.84 1328.3 1291.85 1335.84 1296.46 1210.07 1198.85 1252.41 1182.84 1328.3"/><path class="cls-19" d="M1185.68,734.53a60.62,60.62,0,0,0,60.58,60.63h1.4a60.65,60.65,0,0,0,60.63-60.63V619.83l-100.69,29Z"/><path class="cls-26" d="M890.57,1268.92c-64.28-43.83-51.48-208.66-45.24-226-18,46.58-30.87,89.92-33.36,121.79-5.6,71.69.18,135.84,89.76,152.76,41.65,7.85,71.18,6.84,89.22,4.37a0,0,0,0,0,0,0c14.47-2,21.54-4.89,21.54-4.89l3.15,42s87.14,3.16,166.41-27.3c0,0,14.16-56.16,16.79-79.26,0,0,29.57-12.36,58.65-25.11C1257.5,1227.3,955.22,1313,890.57,1268.92Z"/><path class="cls-25" d="M1010.66,1359.79s92.13,2.34,171.4-28.12c0,0,14.16-56.16,16.79-79.26,0,0-132.43,57.91-186.35,64.57Z"/><path class="cls-28" d="M1668,971.17l-218.88-67.7a46.21,46.21,0,0,0-57.81,30.5l-53.79,173.91a46.22,46.22,0,0,0,30.5,57.81l218.88,67.69a46.22,46.22,0,0,0,57.81-30.49L1698.52,1029A46.22,46.22,0,0,0,1668,971.17Z"/><path class="cls-29" d="M1447.54,1068.32c.15-21.07-65-23.73-80.35-21.26-10.24,1.66-29.94,16-41.89,21.91-12.93,6.4-24,12.38-33.64,18a271.79,271.79,0,0,0-24.36,15.85c-2.33,25.21-3.06,54.64,1.2,81.71,6,.76,12.78,2.67,21.77,2.4,12.34-.39,28.73-4.91,52.39-22.33,31.3-23,69.77,11.75,74.49-8.23,1.95-8.27-7.51-14.15-18.35-18.08,15.19,2.51,31.43,2.94,33.86-6,2.31-8.46-4.22-14.78-13.39-19.37,13.06,1.75,24.71.45,26.11-9.15,2.13-14.67-20.49-22.1-37.05-25.55C1424.78,1080.1,1447.46,1080.46,1447.54,1068.32Z"/><path class="cls-29" d="M1398.8,1138.28a151.39,151.39,0,0,0-27.68-6.6A232.23,232.23,0,0,0,1398.8,1138.28Z"/><path class="cls-29" d="M1408.3,1078.24a162.21,162.21,0,0,0-16.63-2.6C1392.39,1075.79,1399.44,1077.22,1408.3,1078.24Z"/><path class="cls-29" d="M1419.27,1112.94c-15.63-7.85-38.94-10.68-38.94-10.68S1401.16,1110.51,1419.27,1112.94Z"/><path class="cls-30" d="M1392.17,1073.74a171.28,171.28,0,0,0-20.21-1.61c-.16,0-.21.31,0,.33,6.67,1.1,13.29,2.63,20,3.71s30.55,5.47,45.25,12.64c.62.31-8.93-6-25.05-10.67A168.26,168.26,0,0,0,1392.17,1073.74Z"/><path class="cls-30" d="M1419.12,1112.66c-14.83-6.9-41.31-10.67-50.55-8.48-.12,0-.16.25,0,.27,8.49,1.14,41.82,7,50.29,8.65C1419.49,1113.23,1419.74,1113,1419.12,1112.66Z"/><path class="cls-30" d="M1400.94,1139.1c-13.68-6.13-27-9.16-39-8.1-.27,0-.25.57,0,.61,15.53,2.5,25.65,5,38.57,8C1401.17,1139.77,1401.56,1139.37,1400.94,1139.1Z"/><path class="cls-30" d="M1267.3,1102.81c-2.33,25.21-3.06,54.64,1.2,81.71,6,.76,12.78,2.67,21.77,2.4h0c-13.67-31.09,1.4-100,1.4-100A271.79,271.79,0,0,0,1267.3,1102.81Z"/><path class="cls-29" d="M1351.08,1022c-4.42,14.33-51.18,59.71-51.68,60.56,19.57-6.6,58.62-34,67.79-35.48,0,0,3-6.4.66-23.88S1355.07,1009,1351.08,1022Z"/><path class="cls-26" d="M1284.94,1090.21l-49.49-3.46c4.89,24.37,17.44,94.39,22,140.55,22.46-9.86,44.64-20,52.64-24.76,0,0,0-21.58-8.32-63.56C1295.32,1106.21,1284.94,1090.21,1284.94,1090.21Z"/><path class="cls-31" d="M1345.45,416.12c-52.49,9.32-60.38,1.57-99.4-1s-49.17,42.21-49.17,42.21c-41.06-14.59-55.75,36.8-51,94.34S1197,636.72,1197,636.72l140.45-46.63c37.53-26.94,25-73.89,25-73.89s15.84-2.48,31-21.67C1406.44,478.23,1397.94,406.81,1345.45,416.12Z"/><path class="cls-19" d="M1222.31,519.61l19.81,28.75c.27.39.55.82.83,1.29q1.14,1.92,2.07,3.9c.43.86.77,1.72,1.13,2.6.16.41.35.82.51,1.22.43,1.16.82,2.33,1.17,3.5a1.18,1.18,0,0,0,.08.31c.36,1.27.68,2.55.94,3.84a51.32,51.32,0,0,1-18.38,49.92c-1.93-13.44-12.45-23.72-25.18-23.72-14.1,0-25.54,12.61-25.54,28.16s11.44,28.16,25.54,28.16a22.77,22.77,0,0,0,2.34-.12l-22,87.11,118.75,21.24,20.65-64.84c20.47,2.71,37.28,1.53,51.58-22.76,30.93-52.54-42.24-177.26-42.24-177.26S1294.17,523.83,1222.31,519.61Z"/><g class="cls-32"><path class="cls-33" d="M1291.72,573.53c-12.6,2.09-22,8.53-21.06,14.39s12,8.92,24.58,6.83,22-8.53,21.06-14.39S1304.32,571.44,1291.72,573.53Z"/></g><path class="cls-24" d="M1316.35,719l8.73-28s-63.13-15.59-79.34-31.79C1245.74,659.14,1288.31,716.5,1316.35,719Z"/><path class="cls-11" d="M1319.69,628.32c14.74,2.46,20.14-12.77,20.14-12.77l-30.94-7.85S1305,625.87,1319.69,628.32Z"/><path class="cls-24" d="M1227.27,624.72h-25.91a1.72,1.72,0,0,1,0-3.44h13.38L1198,611.35a1.72,1.72,0,0,1,1.75-3Z"/><path class="cls-24" d="M1335.55,594.79a1.75,1.75,0,0,1-.32-3.46c11.83-2.19,18.42-5.51,19.61-9.87,1.64-6.07-7.24-14.75-16.15-22.45-12.33-10.64-10.5-25.47-10.41-26.1a1.74,1.74,0,0,1,3.45.46c0,.22-1.59,13.65,9.23,23,9.52,8.23,19.49,17.69,17.24,26-1.59,5.85-8.89,9.9-22.33,12.39Z"/><path class="cls-31" d="M1342.73,538.84c-2.23,1-3,4.16-1.66,7s4.17,4.4,6.39,3.39,3-4.16,1.66-7S1345,537.83,1342.73,538.84Z"/><path class="cls-31" d="M1308.22,551c-2.22,1-3,4.16-1.66,7s4.17,4.4,6.39,3.4,3-4.17,1.66-7.05S1310.44,550,1308.22,551Z"/><path class="cls-31" d="M1289.27,548.74a3.57,3.57,0,0,1-1.23-.23,3.48,3.48,0,0,1-2-4.49c5.81-15.4,20.44-16.06,27.36-14.25a3.49,3.49,0,0,1-1.74,6.75c-1.44-.37-14.16-3.14-19.1,10A3.48,3.48,0,0,1,1289.27,548.74Z"/><path class="cls-31" d="M1334.46,528.31a3.57,3.57,0,0,1-1.16-.19,3.52,3.52,0,0,1-2.14-4.47c.14-.4,3.55-9.77,17.12-10a3.49,3.49,0,0,1,.12,7c-8.53.14-10.59,5.17-10.68,5.38A3.44,3.44,0,0,1,1334.46,528.31Z"/><path class="cls-34" d="M2914.7,1663l-14.09-34.86,23.84-29.53a207,207,0,0,0-12.43-16.83,190.59,190.59,0,0,0-15.66-16.61l-33.24,18.3-31.89-19.9,1.87-37.86a187.75,187.75,0,0,0-42.4-10.54l-16.1,34.35-37.53,2.7-20.77-31.79a187.93,187.93,0,0,0-40.53,16.43l7.24,37.31-28.74,24.28-35.5-13.51a187,187,0,0,0-22.52,35.95l27.6,26.09-9.26,36.44-36.68,9.75a187.89,187.89,0,0,0,2.92,43.6l37.6,4.86,14,34.9-23.9,29.45a178.42,178.42,0,0,0,12.78,17.37,193.38,193.38,0,0,0,15.17,16.24l33.3-18.27,31.86,20.07-2.06,37.88a188.13,188.13,0,0,0,42.4,10.65l16.19-34.3,37.55-2.54,20.66,31.85a190.48,190.48,0,0,0,40.61-16.28l-7.16-37.32,28.84-24.15,35.49,13.63a189.52,189.52,0,0,0,23.19-37.06l-27.72-26,9.15-36.47,36.66-9.87a191.15,191.15,0,0,0-3-43.72ZM2767,1787.21a84.66,84.66,0,1,1,84.38-85.07A84.62,84.62,0,0,1,2767,1787.21Z"/><path class="cls-35" d="M2766.18,1578.46a124,124,0,1,0,124.44,123.6A124.12,124.12,0,0,0,2766.18,1578.46Zm.94,235.9a111.87,111.87,0,1,1,111.35-112.26A111.81,111.81,0,0,1,2767.12,1814.36Z"/><path class="cls-35" d="M2767.12,1814.36a111.6,111.6,0,0,1-36.72-6c-9,.5-18.16.71-27.47.57a124,124,0,0,0,162.77-31.83q-12.24,5-25.3,9.47A111.3,111.3,0,0,1,2767.12,1814.36Z"/><path class="cls-36" d="M2929.87,1660.72l-14.09-34.86,23.83-29.53a202.86,202.86,0,0,0-12.42-16.83,190.69,190.69,0,0,0-15.67-16.61l-33.23,18.3-31.89-19.9,1.87-37.86a187.75,187.75,0,0,0-42.4-10.54l-16.1,34.35-37.54,2.7-20.76-31.79a187.93,187.93,0,0,0-40.53,16.43l7.24,37.31-28.74,24.28-35.51-13.52a186.55,186.55,0,0,0-22.51,36l27.59,26.08-9.25,36.45-36.68,9.74a188.4,188.4,0,0,0,2.91,43.6l37.61,4.87,14,34.9-23.9,29.44a177.34,177.34,0,0,0,12.78,17.38,191.74,191.74,0,0,0,15.17,16.24l33.3-18.27,31.86,20.06-2.06,37.88a188.15,188.15,0,0,0,42.4,10.66l16.19-34.3,37.54-2.54,20.67,31.85a190,190,0,0,0,40.61-16.29l-7.16-37.31,28.84-24.16,35.49,13.64a189.52,189.52,0,0,0,23.19-37.06l-27.72-26,9.15-36.48,36.66-9.86a191.15,191.15,0,0,0-3-43.72ZM2782.17,1785a84.66,84.66,0,1,1,84.39-85.07A84.63,84.63,0,0,1,2782.17,1785Z"/><path class="cls-34" d="M2781.35,1576.22a124,124,0,1,0,124.44,123.6A124.1,124.1,0,0,0,2781.35,1576.22Zm.94,235.9a111.87,111.87,0,1,1,111.35-112.26A111.82,111.82,0,0,1,2782.29,1812.12Z"/><path class="cls-37" d="M3219.83,1568.55l9.79-6.44a123.63,123.63,0,0,0-7.9-22.69l-11.71,1.07a17,17,0,0,1-16.7-24.51l5.25-10.46c-2.77-2.87-5.68-5.64-8.74-8.27s-6.23-5.11-9.48-7.41l-9.56,6.75a17,17,0,0,1-26.73-12.87l-.68-11.74a123.57,123.57,0,0,0-23.61-4.43l-4.91,10.64a17,17,0,0,1-29.58,2.21l-6.44-9.79a123.85,123.85,0,0,0-22.69,7.9l1.07,11.71a17,17,0,0,1-24.51,16.71l-10.46-5.26q-4.32,4.15-8.27,8.74c-2.64,3.06-5.11,6.23-7.41,9.48l6.75,9.56a17,17,0,0,1-12.87,26.73l-11.74.68a123.67,123.67,0,0,0-4.43,23.62l10.64,4.9a17,17,0,0,1,2.21,29.59l-9.79,6.44a123.27,123.27,0,0,0,7.9,22.68l11.71-1.07a17,17,0,0,1,16.7,24.51l-5.25,10.46q4.16,4.32,8.74,8.28c3.06,2.63,6.23,5.1,9.48,7.4l9.56-6.75a17,17,0,0,1,26.73,12.88l.68,11.73a123.42,123.42,0,0,0,23.61,4.43l4.91-10.64a17,17,0,0,1,29.58-2.21l6.44,9.79a123.11,123.11,0,0,0,22.69-7.9l-1.07-11.7a17,17,0,0,1,24.51-16.71l10.46,5.25q4.32-4.14,8.27-8.74t7.41-9.48l-6.75-9.56a17,17,0,0,1,12.87-26.73l11.74-.68a123.42,123.42,0,0,0,4.43-23.61l-10.64-4.91A17,17,0,0,1,3219.83,1568.55ZM3071.12,1539a64.71,64.71,0,0,1,42.8-11.64,7,7,0,0,1,6,9.4l-13.78,38.74a16.08,16.08,0,0,0-4.53,1.33l-31-26.71A7.07,7.07,0,0,1,3071.12,1539ZM3048,1614.46a64.7,64.7,0,0,1,2.8-51.8,7.05,7.05,0,0,1,10.9-2.16l31,26.71a14.86,14.86,0,0,0-.35,1.5,15.91,15.91,0,0,0-.26,2.16Zm55.23,41.69a64.21,64.21,0,0,1-36.88-15.43,63.17,63.17,0,0,1-7.07-7.1,7.05,7.05,0,0,1,2.06-10.79l35.86-19.18a16.29,16.29,0,0,0,6.06,3.65l7.41,40.54A7,7,0,0,1,3103.21,1656.15Zm67.86-48.34a64.75,64.75,0,0,1-37.17,43.35,7.06,7.06,0,0,1-9.7-5.23l-7.33-40.08a16.39,16.39,0,0,0,7.1-8.69l40.58,1.85A7.06,7.06,0,0,1,3171.07,1607.81Zm-7-22.51-41.51-1.9a16.79,16.79,0,0,0-3.3-4L3133,1541a7,7,0,0,1,10.4-3.61,64.78,64.78,0,0,1,27.91,39.16A7.07,7.07,0,0,1,3164.1,1585.3Z"/><g class="cls-38"><path class="cls-39" d="M3064.26,1522.1a82.5,82.5,0,1,0,113.87,25.44A82.59,82.59,0,0,0,3064.26,1522.1Zm79.7,125.57a66.22,66.22,0,1,1,20.42-91.4A66.29,66.29,0,0,1,3144,1647.67Z"/></g><path class="cls-13" d="M3228.43,1560l9.79-6.44a123.11,123.11,0,0,0-7.9-22.69l-11.7,1.07a17,17,0,0,1-16.71-24.51l5.25-10.46q-4.14-4.32-8.74-8.28t-9.48-7.4l-9.56,6.75a17,17,0,0,1-26.72-12.87l-.69-11.74a123.42,123.42,0,0,0-23.61-4.43l-4.91,10.64a17,17,0,0,1-29.58,2.21l-6.44-9.79a123.63,123.63,0,0,0-22.69,7.9l1.07,11.71a17,17,0,0,1-24.51,16.7l-10.46-5.25c-2.87,2.76-5.64,5.68-8.27,8.74s-5.1,6.23-7.41,9.48l6.75,9.56a17,17,0,0,1-12.87,26.73l-11.74.68a123.42,123.42,0,0,0-4.43,23.61l10.64,4.91a17,17,0,0,1,2.21,29.58l-9.78,6.44a123.34,123.34,0,0,0,7.89,22.69l11.71-1.07a17,17,0,0,1,16.71,24.51L3027,1669.4q4.14,4.32,8.73,8.27t9.49,7.41l9.56-6.75a17,17,0,0,1,26.72,12.87l.68,11.74a123.67,123.67,0,0,0,23.62,4.43l4.91-10.64a17,17,0,0,1,29.58-2.21l6.44,9.79a123.63,123.63,0,0,0,22.69-7.9l-1.08-11.71a17,17,0,0,1,24.51-16.71l10.46,5.26q4.32-4.15,8.28-8.74c2.63-3.06,5.1-6.23,7.41-9.48l-6.76-9.56a17,17,0,0,1,12.88-26.73l11.73-.68a124.51,124.51,0,0,0,4.44-23.61l-10.64-4.91A17,17,0,0,1,3228.43,1560Zm-148.7-29.53a64.64,64.64,0,0,1,42.79-11.64,7,7,0,0,1,6,9.4l-13.77,38.73a16.24,16.24,0,0,0-4.53,1.34l-31-26.71A7.07,7.07,0,0,1,3079.73,1530.43Zm-23.15,75.44a64.7,64.7,0,0,1,2.8-51.8,7.06,7.06,0,0,1,10.9-2.16l31,26.71c-.14.49-.26,1-.36,1.49a16.3,16.3,0,0,0-.26,2.16Zm55.24,41.69a64.75,64.75,0,0,1-44-22.53,7.06,7.06,0,0,1,2.06-10.79l35.87-19.18a16.33,16.33,0,0,0,6.05,3.65l7.42,40.54A7,7,0,0,1,3111.82,1647.56Zm10.54-56.07a9.86,9.86,0,1,1,3-13.61A9.86,9.86,0,0,1,3122.36,1591.49Zm57.32,7.72a64.73,64.73,0,0,1-37.17,43.36,7,7,0,0,1-9.7-5.23l-7.34-40.09a16.34,16.34,0,0,0,7.1-8.69l40.58,1.86A7.06,7.06,0,0,1,3179.68,1599.21Zm-7-22.5-41.51-1.9a16.36,16.36,0,0,0-3.3-4l13.67-38.44a7,7,0,0,1,10.41-3.61,65.19,65.19,0,0,1,7.26,5.42,64.24,64.24,0,0,1,20.64,33.74A7.08,7.08,0,0,1,3172.7,1576.71Z"/><g class="cls-38"><path class="cls-40" d="M3072.87,1513.51A82.5,82.5,0,1,0,3186.73,1539,82.6,82.6,0,0,0,3072.87,1513.51Zm79.69,125.56a66.22,66.22,0,1,1,20.43-91.39A66.29,66.29,0,0,1,3152.56,1639.07Z"/></g><ellipse class="cls-41" cx="906.61" cy="583.49" rx="148.53" ry="91.69"/><path class="cls-41" d="M955.45,653.47c-3,1.49,51.95,40.82,54.18,40.82s-6.68-55.66-6.68-58.63C1003,635.66,958.42,652,955.45,653.47Z"/><circle class="cls-11" cx="981.07" cy="583.53" r="16.31"/><path class="cls-11" d="M908.1,567.22a16.31,16.31,0,1,0,16.31,16.31A16.31,16.31,0,0,0,908.1,567.22Z"/><path class="cls-11" d="M835.13,567.22a16.31,16.31,0,1,0,16.31,16.31A16.31,16.31,0,0,0,835.13,567.22Z"/><path class="cls-42" d="M3983,1218l-14.49,25c14,8.15,46.42,44.14,57.66,90.41,9.47,39,2.63,77-20.33,112.94-31.12,48.69-79.85,70-144.83,63.46-50.17-5.09-91-25.33-91.43-25.54L3756.66,1510c1.85.93,46.06,22.84,101.45,28.45,75.63,7.66,135.13-18.84,172.07-76.64,27-42.21,35.3-89,24.05-135.29C4041.27,1273.13,4004.07,1230.17,3983,1218Z"/><path class="cls-42" d="M3106.2,515.64c-75.06,12.09-125.72,53-146.51,118.39-15.19,47.75-11.17,95.09,11.62,136.93,26.29,48.24,73.3,80.16,96.8,86.54l7.56-27.86c-15.66-4.25-56.23-30.68-79-72.49-19.2-35.25-22.38-73.73-9.46-114.37,17.52-55.06,59.1-88.25,123.59-98.64,49.78-8,94.47,1,94.91,1.12l5.85-28.28C3209.52,516.56,3161.16,506.79,3106.2,515.64Z"/><path class="cls-42" d="M3758,2643.71H2571.54a19.21,19.21,0,1,0,0,38.41H3758a19.21,19.21,0,1,0,0-38.41Z"/><path class="cls-43" d="M3590,2448.44H2739.59a46.42,46.42,0,0,0-46.42,46.42v148.85h943.2V2494.86A46.42,46.42,0,0,0,3590,2448.44Z"/><path class="cls-42" d="M3527,2365.5H2802.5a46.43,46.43,0,0,0-46.42,46.42v36.52h817.38v-36.52A46.43,46.43,0,0,0,3527,2365.5Z"/><rect class="cls-42" x="3440.87" y="2489" width="76.22" height="154.71"/><rect class="cls-42" x="3383.02" y="2489" width="30.62" height="154.71"/><rect class="cls-42" x="3339.86" y="2489" width="30.62" height="154.71"/><rect class="cls-42" x="3296.7" y="2489" width="30.63" height="154.71"/><rect class="cls-42" x="2796.61" y="2489" width="236.06" height="154.71"/><path class="cls-44" d="M3876.59,1378.37,3850.07,1354l-657.84,714.47,50.82,46.79a26.74,26.74,0,0,0,38.31-2.15l597.31-697.5A26.74,26.74,0,0,0,3876.59,1378.37Z"/><path class="cls-44" d="M3652.06,1239.11,3007.29,1893a26.74,26.74,0,0,0,1.08,38.36l50.9,46.7,656.58-715.62-26.56-24.37A26.73,26.73,0,0,0,3652.06,1239.11Z"/><path class="cls-45" d="M3923.86,1201.26l-53.58-49.33a54,54,0,0,0-75.49,2.34l-730.37,755.65a29.32,29.32,0,0,0,1.22,41.94L3215,2089.42l712.7-812.73A54,54,0,0,0,3923.86,1201.26Z"/><path class="cls-42" d="M3749.28,1329.73l-5.6-5.16a42.7,42.7,0,0,0-60.34,2.49l-376.1,408.47a42.7,42.7,0,0,0,2.49,60.34l5.6,5.16a42.7,42.7,0,0,0,60.34-2.49l376.1-408.48A42.69,42.69,0,0,0,3749.28,1329.73Z"/><rect class="cls-7" x="3209.18" y="1552.06" width="640.66" height="21.47" transform="translate(-10.9 3100.75) rotate(-47.36)"/><path class="cls-44" d="M3159.82,1834.12h0c-143,0-258.87,115.9-258.87,258.87V2365.5h517.74V2093C3418.69,1950,3302.79,1834.12,3159.82,1834.12Z"/><circle class="cls-42" cx="3159.82" cy="2084.49" r="190.4" transform="translate(-548.46 2844.86) rotate(-45)"/><circle class="cls-7" cx="3159.82" cy="2084.49" r="145.44" transform="translate(967.2 5170.25) rotate(-88.02)"/><path class="cls-44" d="M3291.42,692.67a21.48,21.48,0,0,0,.79,29.9l524.18,518.69a21.47,21.47,0,0,0,30.8-.81l37.58-40.81L3311,671.37Z"/><path class="cls-44" d="M4025.59,1029.67,3462.9,553a21.47,21.47,0,0,0-29.85,1.83l-19.49,21.4,576.57,525.17,37.35-41A21.46,21.46,0,0,0,4025.59,1029.67Z"/><path class="cls-45" d="M3976.57,1064.33,3342.06,507.91a43.33,43.33,0,0,0-60.57,3.12l-39.61,43a43.34,43.34,0,0,0,1.87,60.63L3867.91,1218l110.46-120A23.55,23.55,0,0,0,3976.57,1064.33Z"/><path class="cls-42" d="M3805.23,972.63l-343-315.8a37.35,37.35,0,0,0-50.6,54.95l343,315.8a37.35,37.35,0,1,0,50.6-54.95Z"/><rect class="cls-7" x="3599.82" y="571.75" width="17.24" height="540.92" transform="translate(544.68 2926.32) rotate(-47.36)"/><circle class="cls-42" cx="3907.88" cy="1163.29" r="152.9" transform="translate(-114.03 493.19) rotate(-7.12)"/><circle class="cls-7" cx="3907.88" cy="1163.29" r="116.8" transform="translate(2360.8 4935.73) rotate(-84.28)"/><path class="cls-45" d="M3147.51,508,3021.27,991.83c-3.59,13.51,7.74,28.51,25.49,33.75l44,13c17.76,5.25,35.42-1.19,39.75-14.48L3292,535.78,3169.27,499.5C3159.32,496.56,3149.49,500.38,3147.51,508Z"/><path class="cls-7" d="M3146.51,716.76a19.06,19.06,0,1,0,26.94-1.07A19.05,19.05,0,0,0,3146.51,716.76Z"/><circle class="cls-7" cx="3125.18" cy="832.6" r="19.07" transform="translate(1288.16 3494.43) rotate(-70.31)"/><path class="cls-7" d="M3079.66,913.74a19.07,19.07,0,1,0,27-1.07A19.07,19.07,0,0,0,3079.66,913.74Z"/><circle class="cls-42" cx="3224.26" cy="527.51" r="120.02"/><circle class="cls-7" cx="3224.26" cy="527.51" r="91.68" transform="translate(245.02 1868.49) rotate(-33.52)"/><path class="cls-42" d="M3150,1034.76l-146.89-44a2.1,2.1,0,0,0-2.61,1.41l-14.6,48.73a2.09,2.09,0,0,0,1.41,2.6l146.89,44a2.09,2.09,0,0,0,2.6-1.4l14.6-48.73A2.08,2.08,0,0,0,3150,1034.76Z"/><path class="cls-42" d="M2970.91,1149.26a77.66,77.66,0,0,0,148.87-17.64l-148-42.45A77.4,77.4,0,0,0,2970.91,1149.26Z"/><path class="cls-45" d="M3157.68,1088.85l-23.53-7-142.53-42.72-21.56-6.46a8.32,8.32,0,0,0-10.15,5.93l-13.07,43.63a8.31,8.31,0,0,0,5.22,10.52l187.62,56.23c4.24,1.27,8.78-1.38,10.15-5.93l13.07-43.62A8.32,8.32,0,0,0,3157.68,1088.85Z"/><path class="cls-11" d="M3901.69,1074.48A82.64,82.64,0,0,0,3871.52,1234a75.82,75.82,0,1,1,107.1-107.11A82.65,82.65,0,0,0,3901.69,1074.48Z"/><path class="cls-11" d="M3183.6,475.68a60.73,60.73,0,0,0-16.15,66.47,55.7,55.7,0,1,1,111.13,5.7,60.7,60.7,0,0,0-95-72.17Z"/><path class="cls-11" d="M3184.89,2147a75.81,75.81,0,0,1-80.44-116.28,82.63,82.63,0,1,0,129.14,79.13A75.61,75.61,0,0,1,3184.89,2147Z"/><polygon class="cls-46" points="3046.59 1424.31 3065.9 1433.33 3167.76 1302.38 3115.11 1277.77 3046.59 1424.31"/><polygon class="cls-46" points="2816.86 1353.17 2837.03 1360.08 2889.47 1207.06 2834.49 1188.21 2816.86 1353.17"/><path class="cls-45" d="M3092.42,1171.16l-118.66-35.6a27.44,27.44,0,1,0-15.77,52.57l118.66,35.6a27.44,27.44,0,1,0,15.77-52.57Z"/><path class="cls-45" d="M3108.22,1183.17a23.53,23.53,0,0,0-42.48,19.1l29.51,103.21a39.11,39.11,0,0,0,52.47,25.48h0a39.13,39.13,0,0,0,18-57.54Z"/><path class="cls-7" d="M3131.13,1278.38a15,15,0,1,0,14.62,9.37A15.05,15.05,0,0,0,3131.13,1278.38Z"/><path class="cls-7" d="M3088.71,1186.56a11.56,11.56,0,1,0,11.23,7.2A11.57,11.57,0,0,0,3088.71,1186.56Z"/><path class="cls-45" d="M2988,1150.28a23.53,23.53,0,0,0-29-15.29l-102.61,30.32a39.13,39.13,0,1,0,32.05,70.43l90-58.45a23.52,23.52,0,0,0,9.56-27Z"/><path class="cls-7" d="M2968.62,1148.43a11.56,11.56,0,1,0,6.63,11.57A11.57,11.57,0,0,0,2968.62,1148.43Z"/><path class="cls-7" d="M2875.29,1189.09a15,15,0,1,0,8.62,15.07A15.07,15.07,0,0,0,2875.29,1189.09Z"/></g></svg>