<?xml version="1.0" encoding="UTF-8"?><svg version="1.1" xmlns="http://www.w3.org/2000/svg" xmlns:xlink="http://www.w3.org/1999/xlink" viewBox="0 0 1280 720" width="1280" height="720" x="0px" y="0px">
    
    
    <!-- ITEM 0 -->
    <g>
        <defs>
            <clipPath id="clip-path-id-viewbox-item-0">
                <rect x="0.0" y="0.0" width="1702.828" height="267.765"/>
            </clipPath>
        </defs>
        <g transform="translate(83.0 586.0) rotate(350.8542000571443 556.0 87.5) scale(0.6530313102673905 0.6535581573394581)">
            <g clip-path="url(#clip-path-id-viewbox-item-0)" transform="translate(-0.0 -0.0)">
                
  
  <path d="M1699.832,267.766a2.882,2.882,0,0,1-.461-.036L2.543,5.965A3,3,0,1,1,3.457.035L1700.285,261.8a3,3,0,0,1-.453,5.966Z" style="         fill: #222433;       "/>

            </g>
        </g>
    </g>
    
    <!-- ITEM 1 -->
    <g>
        <defs>
            <clipPath id="clip-path-id-viewbox-item-1">
                <rect x="0.0" y="0.0" width="811.388" height="917.078"/>
            </clipPath>
        </defs>
        <g transform="translate(142.0 47.0) rotate(0.0 279.0 315.0) scale(0.6877104418601211 0.6869644675807293)">
            <g clip-path="url(#clip-path-id-viewbox-item-1)" transform="translate(-0.0 -0.0)">
                

<g>
	<g>
		<path d="M130.5,285.292c-24.261,0-46.94-6.776-66.246-18.539C27.525,244.374,3,203.947,3,157.792    c0-70.416,57.084-127.5,127.5-127.5c68.502,0,119.512,42.235,122.5,110" style="fill:#FFFFFF;"/>
		<path d="M130.5,288.292c-23.983,0-47.431-6.562-67.807-18.978c-18.781-11.443-34.494-27.568-45.441-46.632    C5.966,203.027,0,180.588,0,157.792c0-71.958,58.542-130.5,130.5-130.5c72.086,0,122.52,45.358,125.497,112.868    c0.073,1.655-1.209,3.056-2.865,3.129c-1.651,0.073-3.057-1.209-3.129-2.865C247.177,76.346,199.153,33.292,130.5,33.292    C61.851,33.292,6,89.143,6,157.792c0,43.803,22.361,83.578,59.815,106.398c19.436,11.842,41.803,18.102,64.685,18.102    c1.657,0,3,1.343,3,3S132.157,288.292,130.5,288.292z" style="fill:#222433;"/>
	</g>
	<g>
		<path d="M271.947,92.488c-2.037-4.66-4.76-8.897-8.011-12.63c1.454-3.603,2.508-7.432,3.082-11.45    c0-0.002,0-0.004,0.001-0.005c1.395-9.294,0.102-18.37-3.296-26.441L251,23.292l-31,16l-46,23l3,58l90-21" style="fill:#FFFFFF;"/>
		<path d="M177,123.292c-0.645,0-1.279-0.208-1.804-0.603c-0.709-0.534-1.146-1.355-1.192-2.242l-3-58    c-0.062-1.191,0.588-2.305,1.654-2.838l46-23l30.966-15.982c1.348-0.696,3.002-0.276,3.855,0.977L266.2,40.273    c0.113,0.165,0.208,0.341,0.286,0.525c3.717,8.83,4.927,18.53,3.498,28.051c0,0.004-0.001,0.009-0.002,0.013    c-0.508,3.547-1.385,7.043-2.613,10.419c2.985,3.673,5.446,7.704,7.327,12.006c0.664,1.518-0.029,3.287-1.547,3.95    c-1.517,0.663-3.287-0.029-3.951-1.547c-1.876-4.292-4.408-8.283-7.525-11.861c-0.741-0.851-0.942-2.046-0.52-3.093    c1.396-3.458,2.369-7.075,2.894-10.751v0c0.002-0.015,0.004-0.029,0.006-0.044c1.247-8.327,0.215-16.806-2.983-24.542    l-11.054-16.223l-28.64,14.782l-44.279,22.14l2.713,52.458l86.508-20.185c1.612-0.377,3.227,0.626,3.603,2.24    s-0.626,3.227-2.24,3.603l-90,21C177.456,123.267,177.228,123.292,177,123.292z" style="fill:#222433;"/>
	</g>
	<g>
		<path d="M167.99,146.382c-11.493-3.741-23.761-5.763-36.502-5.763c-65.071,0-117.821,52.75-117.821,117.821    c0,18.388,5.085,36.609,12.597,52.116" style="fill:#FFFFFF;"/>
		<path d="M26.267,313.556c-1.114,0-2.184-0.623-2.702-1.693c-5.884-12.147-12.898-31.275-12.898-53.424    c0-66.621,54.2-120.821,120.821-120.821c12.789,0,25.382,1.989,37.431,5.911c1.575,0.513,2.437,2.206,1.924,3.781    c-0.512,1.575-2.203,2.437-3.781,1.924c-11.448-3.727-23.416-5.616-35.573-5.616c-63.313,0-114.821,51.508-114.821,114.821    c0,21.011,6.688,39.227,12.297,50.809c0.723,1.491,0.099,3.285-1.392,4.008C27.152,313.46,26.706,313.556,26.267,313.556z" style="fill:#222433;"/>
	</g>
	<g>
		<path d="M151.146,794.972c9.478,24.162,13.315,46.844,1.181,62.757c-16.54,21.69-23.189,28.97-21.249,56.35h8.738    h160.106l15.775-65.82l-33.583-105.204" style="fill:#FFFFFF;"/>
		<path d="M299.921,917.079H131.078c-1.575,0-2.881-1.217-2.993-2.788c-1.933-27.278,4.395-35.551,19.683-55.537    l2.173-2.845c9.86-12.93,9.355-31.945-1.588-59.841c-0.605-1.542,0.155-3.284,1.697-3.889c1.543-0.606,3.283,0.155,3.889,1.697    c11.784,30.042,12.03,50.909,0.773,65.671l-2.179,2.852c-14.164,18.517-19.802,25.885-18.634,48.679h163.657l15.029-62.706    l-33.329-104.407c-0.504-1.578,0.367-3.266,1.946-3.77c1.578-0.503,3.266,0.367,3.77,1.946l33.583,105.204    c0.167,0.521,0.187,1.079,0.06,1.611l-15.775,65.82C302.515,916.127,301.309,917.079,299.921,917.079z" style="fill:#222433;"/>
	</g>
	<g>
		<path d="M274.907,507.026l-14.26,33.28l-15.71,36.69l-5.44,12.69l2.15,5.6l14.28,37.19l40.26,105l-167.35,66.34    l-13-33.81l-34.93-90.56l-22.36-58c-6.54-16.47-8.06-34.52-4.37-51.86c1.21-5.71,2.98-11.28,5.28-16.65l10.19-23.7l7.36-17.19    l15.64-36.57l38.98-91.03L149,325.292h48l99-1l9.652,6.335" style="fill:#FFFFFF;"/>
		<path d="M128.836,806.816c-0.411,0-0.821-0.084-1.205-0.252c-0.733-0.322-1.308-0.923-1.596-1.671l-13-33.81    L55.747,622.525c-6.77-17.049-8.332-35.58-4.504-53.564c1.243-5.865,3.079-11.655,5.456-17.207l17.55-40.89l15.64-36.569    l38.91-90.867l17.323-58.982c0.375-1.277,1.547-2.155,2.878-2.155h48l98.97-1c0.592-0.015,1.179,0.165,1.676,0.492l9.651,6.335    c1.385,0.909,1.771,2.769,0.862,4.154c-0.909,1.385-2.769,1.771-4.154,0.862l-8.888-5.834l-98.087,0.991l-45.785,0l-16.741,56.999    c-0.034,0.114-0.074,0.226-0.121,0.335l-38.98,91.03l-23,53.76l-10.192,23.704c-2.222,5.188-3.938,10.602-5.101,16.087    c-3.581,16.824-2.12,34.158,4.223,50.131l57.301,148.588l11.914,30.984l161.774-64.13l-39.198-102.23l-16.43-42.789    c-0.28-0.729-0.264-1.539,0.043-2.257l35.41-82.66c0.652-1.523,2.415-2.229,3.939-1.576c1.523,0.653,2.229,2.416,1.576,3.939    l-34.93,81.541l15.994,41.652l40.26,105.001c0.588,1.535-0.167,3.257-1.696,3.863l-167.35,66.34    C129.586,806.746,129.211,806.816,128.836,806.816z" style="fill:#222433;"/>
	</g>
	<g>
		<path d="M521.805,796.379c8.386,14.168,21.733,25.14,38.422,33.109c31.12,14.86,42.922,20.406,58,25.14    c25.935,8.143,44.328,32.352,42.173,59.45l-152.673-0.56l-82.08-45.56l0.75,45.89l-57.58,0.23l-0.694-141.077" style="fill:#FFFFFF;"/>
		<path d="M368.816,917.079c-1.65,0-2.992-1.333-3-2.985l-0.693-141.078c-0.008-1.657,1.329-3.006,2.985-3.015    c1.67,0.032,3.006,1.329,3.015,2.985l0.679,138.081l51.545-0.206l-0.7-42.854c-0.018-1.071,0.538-2.07,1.457-2.622    c0.918-0.552,2.062-0.57,2.999-0.05l81.406,45.186l149.043,0.547c0.552-23.721-15.974-45.964-40.224-53.578    c-15.063-4.729-26.767-10.193-58.394-25.295c-17.959-8.575-31.32-20.112-39.71-34.288c-0.844-1.426-0.372-3.266,1.054-4.109    c1.426-0.843,3.266-0.373,4.109,1.054c7.773,13.133,20.267,23.876,37.133,31.93c31.342,14.966,42.929,20.376,57.606,24.985    c13.336,4.187,25.109,12.611,33.152,23.72c8.251,11.397,12.198,25.188,11.113,38.83c-0.124,1.56-1.427,2.762-2.991,2.762    c-0.003,0-0.007,0-0.011,0l-152.673-0.56c-0.505-0.002-1.002-0.131-1.445-0.377l-77.54-43.04l0.665,40.698    c0.013,0.802-0.295,1.576-0.857,2.148c-0.561,0.573-1.329,0.897-2.13,0.9l-57.581,0.23    C368.824,917.079,368.82,917.079,368.816,917.079z" style="fill:#222433;"/>
	</g>
	<g>
		<path d="M299.347,327.986l86.48,36.23l91.82,38.46l38,15.91l23.44,9.82l24.46,10.25    c33.74,20.04,50.59,59.64,41.64,97.85l-0.01,0.01l-30.77,126.13l-15.2,62.29l-18.15,74.37l-178.69-27.18l52.53-212.42l-1.55-0.58    l-43.92-16.54l-7.46-2.8l-41.45-15.6l-45.61-17.16" style="fill:#FFFFFF;"/>
		<path d="M541.06,802.306c-0.15,0-0.302-0.011-0.454-0.035l-178.69-27.18c-0.833-0.127-1.576-0.599-2.044-1.3    c-0.468-0.702-0.62-1.567-0.417-2.386l51.889-209.828l-137.493-51.743c-1.551-0.583-2.335-2.313-1.751-3.864    s2.313-2.335,3.864-1.751l139.985,52.678c1.426,0.534,2.226,2.052,1.86,3.53l-51.74,209.228l172.725,26.273l63.469-260.122    c0.014-0.058,0.03-0.115,0.047-0.171c8.578-36.984-7.525-74.831-40.117-94.293L298.188,330.753    c-1.528-0.64-2.248-2.398-1.608-3.926s2.397-2.248,3.926-1.608l264.2,110.67c0.128,0.054,0.252,0.116,0.373,0.188    c35.03,20.806,52.322,61.44,43.029,101.114c-0.018,0.076-0.039,0.152-0.062,0.226l-64.074,262.601    C543.639,801.377,542.421,802.306,541.06,802.306z" style="fill:#222433;"/>
	</g>
	<g>
		<path d="M273.804,512.527c-0.362,0-0.73-0.066-1.087-0.205c-1.544-0.601-2.309-2.34-1.708-3.884l13.36-34.33    c0.602-1.544,2.342-2.308,3.884-1.708c1.544,0.601,2.309,2.34,1.708,3.884l-13.36,34.33    C276.138,511.8,275.004,512.527,273.804,512.527z" style="fill:#222433;"/>
	</g>
	<g>
		<path d="M752.781,189.881c-0.164,0-0.33-0.013-0.497-0.041l-18.989-3.165c-1.634-0.272-2.738-1.818-2.466-3.452    c0.272-1.634,1.816-2.738,3.452-2.466l18.989,3.165c1.634,0.272,2.738,1.818,2.466,3.452    C755.493,188.841,754.221,189.881,752.781,189.881z" style="fill:#222433;"/>
	</g>
	<g>
		<polygon points="88.157,518.518 69.597,529.238 76.957,512.048   " style="fill:#82B1FF;"/>
	</g>
	<g>
		<polygon points="239.517,589.688 241.667,595.288 223.537,605.748 223.537,564.628 244.957,576.998   " style="fill:#82B1FF;"/>
	</g>
	<g>
		<polygon points="104.847,738.818 104.847,697.688 140.447,718.248   " style="fill:#82B1FF;"/>
	</g>
	<g>
		<polygon points="386.6,519.338 358.46,535.598 351,532.798 351,498.778   " style="fill:#82B1FF;"/>
	</g>
	<g>
		<polygon points="539.077,428.418 515.637,441.958 515.637,418.598   " style="fill:#82B1FF;"/>
	</g>
	<g>
		<path d="M526.988,476.128h-1.092c-30.208-0.027-54.76-24.624-54.733-54.83c0.006-6.764,1.246-13.393,3.685-19.702    c0.598-1.545,2.336-2.314,3.88-1.716c1.545,0.597,2.314,2.334,1.717,3.88c-2.172,5.618-3.276,11.521-3.281,17.544    c-0.024,26.897,21.838,48.8,48.736,48.824h1.087c18.309-0.011,34.916-10.12,43.336-26.38c0.763-1.471,2.574-2.045,4.043-1.284    c1.472,0.762,2.046,2.572,1.285,4.044C566.195,464.766,547.549,476.115,526.988,476.128z" style="fill:#222433;"/>
	</g>
	<g>
		<path d="M527.372,738.938c-0.02,0-0.039,0-0.059,0h-1.086c-30.189,0-54.75-24.561-54.75-54.75    s24.561-54.75,54.75-54.75h1.09c0.008,0,0.017,0,0.024,0c21.355,0,40.898,12.543,49.793,31.96c0.69,1.506,0.028,3.287-1.478,3.977    c-1.507,0.689-3.287,0.028-3.977-1.478c-7.92-17.29-25.324-28.459-44.34-28.459c-0.008,0-0.014,0-0.021,0h-1.091    c-26.881,0-48.75,21.869-48.75,48.75s21.869,48.75,48.75,48.75h1.09c0.017,0,0.035,0,0.053,0c10.826,0,21.471-3.678,29.985-10.36    c1.304-1.023,3.189-0.796,4.212,0.508c1.023,1.303,0.796,3.189-0.508,4.212C551.494,734.806,539.532,738.938,527.372,738.938z" style="fill:#222433;"/>
	</g>
	<g>
		<polygon points="515.977,704.728 515.977,663.598 551.586,684.168   " style="fill:#82B1FF;"/>
	</g>
	<g>
		<path d="M402.345,555.128c-0.67,0-1.344-0.223-1.902-0.681c-1.28-1.052-1.466-2.942-0.415-4.222    c7.128-8.681,11.045-19.649,11.028-30.882c0-26.895-21.869-48.764-48.75-48.764h-1.09c-26.225,0.003-47.618,20.531-48.703,46.734    c-0.069,1.655-1.46,2.937-3.122,2.874c-1.655-0.069-2.942-1.466-2.874-3.122c1.218-29.428,25.244-52.483,54.697-52.486h1.09    c30.189,0,54.75,24.561,54.75,54.75c0.019,12.627-4.382,24.949-12.392,34.704C404.072,554.754,403.212,555.128,402.345,555.128z" style="fill:#222433;"/>
	</g>
	<g>
		<path d="M116.187,773.008h-0.391c-1.657,0-3-1.343-3-3s1.343-3,3-3h0.39c26.88-0.005,48.75-21.878,48.75-48.76    c0-26.931-21.869-48.8-48.75-48.8h-1.09c-0.01,0-0.021,0-0.031,0c-11.887,0-23.322,4.347-32.206,12.242    c-1.238,1.1-3.134,0.989-4.235-0.25c-1.101-1.239-0.989-3.135,0.25-4.235c9.982-8.872,22.835-13.758,36.189-13.758    c0.012,0,0.023,0,0.035,0h1.088c30.189,0,54.75,24.561,54.75,54.75C170.937,748.437,146.376,773.002,116.187,773.008z" style="fill:#222433;"/>
	</g>
	<g>
		<path d="M260.644,543.309c-0.508,0-1.022-0.129-1.494-0.401c-7.351-4.233-15.719-6.47-24.201-6.47    c-0.014,0-0.025,0-0.039,0h-1.093c-0.883,0-1.778,0.024-2.658,0.071c-1.658,0.093-3.067-1.181-3.156-2.835    c-0.089-1.655,1.181-3.068,2.835-3.156c0.986-0.053,1.989-0.08,2.979-0.08h1.09c0.015,0,0.029,0,0.044,0    c9.529,0,18.932,2.513,27.193,7.27c1.436,0.827,1.93,2.661,1.103,4.097C262.691,542.769,261.682,543.309,260.644,543.309z" style="fill:#222433;"/>
	</g>
	<g>
		<path d="M234.946,639.938c-0.014,0-0.027,0-0.042,0h-1.088c-30.189,0-54.75-24.561-54.75-54.75c0-1.657,1.343-3,3-3    s3,1.343,3,3c0,26.881,21.869,48.75,48.75,48.75h1.09c0.012,0,0.025,0,0.037,0c6.847,0,13.488-1.413,19.742-4.2    c1.51-0.674,3.287,0.005,3.961,1.519c0.674,1.513-0.005,3.287-1.519,3.961C250.101,638.351,242.638,639.938,234.946,639.938z" style="fill:#222433;"/>
	</g>
	<g>
		<path d="M63.887,573.279h-1.08c-3.05-0.001-6.121-0.257-9.126-0.761c-1.634-0.274-2.737-1.821-2.462-3.455    c0.274-1.634,1.816-2.735,3.455-2.462c2.68,0.449,5.417,0.678,8.135,0.679h1.079c26.886,0,48.76-21.874,48.76-48.76    c0.015-16.329-8.084-31.485-21.665-40.544c-1.378-0.919-1.75-2.782-0.831-4.16c0.919-1.378,2.781-1.75,4.161-0.831    c15.255,10.177,24.352,27.2,24.335,45.538C118.646,548.713,94.082,573.279,63.887,573.279z" style="fill:#222433;"/>
	</g>
	<g>
		<path d="M333.239,424.398c-14.608,0-28.346-5.685-38.685-16.01c-10.348-10.334-16.052-24.079-16.062-38.704    c-0.01-14.636,5.684-28.397,16.033-38.747c1.573-1.573,3.259-3.067,5.011-4.44c1.304-1.022,3.19-0.794,4.212,0.51    c1.022,1.304,0.793,3.19-0.511,4.212c-1.563,1.225-3.066,2.557-4.47,3.96c-9.214,9.216-14.284,21.469-14.275,34.501    c0.009,13.021,5.088,25.26,14.301,34.462c9.206,9.193,21.439,14.256,34.447,14.256c0.012,0,0.021,0,0.034,0h1.092    c26.875-0.005,48.745-21.875,48.75-48.751c-0.013-1.68-0.118-3.401-0.311-5.089c-0.188-1.646,0.994-3.133,2.64-3.321    c1.649-0.188,3.133,0.994,3.321,2.64c0.217,1.898,0.334,3.831,0.35,5.747c-0.006,30.207-24.567,54.768-54.75,54.773h-1.091    C333.264,424.398,333.251,424.398,333.239,424.398z" style="fill:#222433;"/>
	</g>
	<g>
		<polygon points="323.017,390.208 323.017,349.088 358.627,369.648   " style="fill:#82B1FF;"/>
	</g>
	<g>
		<line x1="268.879" y1="86.616" x2="264.372" y2="78.728" style="fill:#FFFFFF;"/>
		<path d="M268.881,89.616c-1.042,0-2.054-0.543-2.608-1.512l-4.506-7.887c-0.822-1.439-0.322-3.271,1.117-4.093    c1.438-0.823,3.271-0.322,4.093,1.116l4.506,7.887c0.822,1.439,0.322,3.271-1.117,4.093    C269.897,89.489,269.386,89.616,268.881,89.616z" style="fill:#222433;"/>
	</g>
	<g>
		<path d="M128.836,807.816c-0.411,0-0.821-0.084-1.205-0.252c-0.733-0.322-1.308-0.923-1.596-1.671l-13-33.81    L55.747,623.525c-6.77-17.049-8.332-35.58-4.505-53.564c1.243-5.865,3.079-11.655,5.457-17.207l17.55-40.89l15.64-36.569    l38.98-91.031l22.375-52.155c0.433-1.01,1.384-1.702,2.479-1.804l43-4c0.052-0.005,0.104-0.008,0.157-0.01l98.575-3.983    l2.597-0.866c1.572-0.522,3.27,0.326,3.795,1.897c0.524,1.572-0.326,3.271-1.897,3.795l-3,1c-0.268,0.089-0.546,0.14-0.828,0.152    l-98.922,3.997l-41.146,3.828l-21.67,50.514l-38.979,91.028l-23,53.76l-10.192,23.704c-2.222,5.188-3.938,10.602-5.101,16.087    c-3.58,16.824-2.119,34.158,4.223,50.131l57.301,148.588l11.914,30.984l161.774-64.13l-39.198-102.23l-16.43-42.789    c-0.28-0.729-0.264-1.539,0.043-2.257l35.41-82.66c0.652-1.522,2.415-2.229,3.939-1.576c1.523,0.653,2.229,2.416,1.576,3.939    l-34.93,81.541l15.994,41.652l40.26,105.001c0.588,1.535-0.168,3.257-1.696,3.863l-167.35,66.34    C129.586,807.746,129.211,807.816,128.836,807.816z" style="fill:#222433;"/>
	</g>
	<g>
		<path d="M190.322,69.646c10.05-1.638,25.382-9.981,32.383-18.075l25.43-24.713l15.586,15.381    c-3.179-11.997-8.203-22.559-18.355-29.635l0,0c-10.664-7.383-24.097-10.972-38.043-9.126    c-27.071,3.692-51.545,24.14-45.479,61.587" style="fill:#FFFFFF;"/>
		<path d="M190.318,72.647c-1.445,0-2.718-1.046-2.958-2.518c-0.267-1.635,0.843-3.177,2.479-3.443    c9.642-1.571,24.225-9.711,30.596-17.077c0.057-0.066,0.116-0.129,0.178-0.189l25.43-24.713c1.171-1.138,3.036-1.131,4.198,0.016    l6.362,6.279c-3.245-6.984-7.437-12.09-12.954-15.936c-10.452-7.235-23.215-10.297-35.934-8.613    c-14.87,2.028-27.343,8.924-35.112,19.416c-7.661,10.347-10.285,23.373-7.799,38.718c0.265,1.635-0.846,3.176-2.482,3.441    c-1.63,0.265-3.176-0.846-3.441-2.482c-2.715-16.762,0.362-31.717,8.9-43.248c8.739-11.803,22.638-19.542,39.135-21.792    c14.209-1.88,28.468,1.54,40.156,9.632c12.364,8.617,17.077,22.009,19.547,31.333c0.347,1.307-0.225,2.685-1.395,3.364    c-1.17,0.679-2.649,0.49-3.612-0.46l-13.495-13.318l-23.232,22.577c-7.284,8.345-23.167,17.195-34.082,18.973    C190.641,72.634,190.479,72.647,190.318,72.647z" style="fill:#222433;"/>
	</g>
	<g>
		<path d="M624.097,235.16c-38.764-40.19-18.446-63.192-11.624-70.117c16.201-16.446,61.417-10.001,55.999-13.764    c-11.888-8.257-26.781-12.263-42.256-10.17l-207.33,28.62h-152.37c-1.781,0-14.363-0.341-19.04,0.23l-8.13,0.983    c0,0,4.771,43.436-32.35,41.137c-32.217-1.995-30.341-33.555-30.341-33.555l-13.929,1.685c-1.959,0.234-3.888,0.651-5.83,1    c-22.984,4.131-31.903,11.862-40.45,21.85l-93.67,109.2c-21.572,25.154-18.667,63.033,6.487,84.604    c0.229,0.197,0.461,0.392,0.693,0.586l99.84,83.14c5.653,4.701,11.913,8.187,18.465,10.489c0,0,0.146-6.45-3.075-14.417    c-5.894-14.575-15.995-36.396-8.943-48.431c14.325-24.446,42.101-27.424,56.073-22.596c39.338,13.592,30.393,54.864,32.69,48.08    c7.731-22.833,1.164-49.06-18.48-65.395v-0.03l-53-44.11l6.965-8.126l139.305-7.804l4.067-38.52h118.303    c2.185,0,4.368-0.12,6.54-0.36l213.59-29.34c19.628-2.654,35.75-14.519,44.595-30.648    C692.845,218.526,658.016,253.923,624.097,235.16z" style="fill:#5A38FD;"/>
	</g>
	<g>
		<path d="M271.74,92.067c3.729,8.514,4.967,17.911,3.57,27.1c-3.817,25.762-27.124,45.006-52.473,42.078l16.22-0.283    v20.778c-0.468,17.225-14.811,30.809-32.036,30.341c-0.008,0-0.016,0-0.023-0.001c-16.912-0.466-30.373-14.322-30.35-31.24    l0.267-68.833" style="fill:#FFFFFF;"/>
		<path d="M207.881,215.091c-0.313,0-0.627-0.004-0.942-0.013c-18.704-0.515-33.317-15.557-33.292-34.243l0.267-68.84    c0.006-1.653,1.349-2.988,3-2.988c0.004,0,0.007,0,0.012,0c1.657,0.006,2.995,1.355,2.988,3.012l-0.267,68.833    c-0.021,15.401,12.029,27.805,27.433,28.229c15.553,0.416,28.556-11.879,28.979-27.423l-0.001-17.644l-1.267,0.022    c-4.01,0.587-8.133,0.67-12.298,0.188c-1.569-0.181-2.729-1.549-2.652-3.126c0.077-1.578,1.365-2.826,2.944-2.853l11.539-0.201    c18.951-2.944,34.972-18.743,38.019-39.316c1.315-8.652,0.156-17.451-3.35-25.456c-0.665-1.518,0.027-3.287,1.544-3.952    c1.518-0.664,3.287,0.027,3.952,1.544c3.962,9.047,5.272,18.99,3.788,28.754c-3.064,20.685-17.825,37.093-36.219,42.772v19.349    C241.552,200.354,226.312,215.09,207.881,215.091z" style="fill:#222433;"/>
	</g>
	<g>
		<path d="M237.92,102.073c-1.432,0-2.699-1.028-2.952-2.487c-0.284-1.632,0.81-3.186,2.442-3.469l7.533-1.309    L240.9,84.619c-0.611-1.54,0.142-3.284,1.682-3.895c1.541-0.612,3.284,0.142,3.895,1.682l5.403,13.62    c0.333,0.839,0.27,1.784-0.171,2.572c-0.441,0.788-1.214,1.335-2.104,1.49l-11.168,1.94    C238.263,102.058,238.09,102.073,237.92,102.073z" style="fill:#222433;"/>
	</g>
	<g>
		<circle cx="222.837" cy="78.728" r="5.2" style="fill:#222433;"/>
	</g>
	<g>
		<circle cx="260.337" cy="79.568" r="5.2" style="fill:#222433;"/>
	</g>
	<g>
		<path d="M177.79,110.598c-1.319,0.236-2.677,0.359-4.063,0.359c-12.672,0-22.945-10.273-22.945-22.945    s10.273-22.945,22.945-22.945s22.945,10.273,22.945,22.945" style="fill:#FFFFFF;"/>
		<path d="M173.727,113.956c-14.306,0-25.945-11.639-25.945-25.945s11.639-25.945,25.945-25.945    s25.945,11.639,25.945,25.945c0,1.657-1.343,3-3,3s-3-1.343-3-3c0-10.998-8.947-19.945-19.945-19.945s-19.945,8.948-19.945,19.945    s8.947,19.945,19.945,19.945c1.188,0,2.377-0.105,3.535-0.312c1.638-0.293,3.19,0.795,3.481,2.425    c0.292,1.631-0.794,3.19-2.425,3.481C176.812,113.82,175.268,113.956,173.727,113.956z" style="fill:#222433;"/>
	</g>
	<g>
		<path d="M172.79,95.025c-1.229,0-2.381-0.76-2.822-1.982c-0.563-1.559,0.245-3.278,1.804-3.84l4.581-1.653    l-9.007-3.552c-1.541-0.608-2.298-2.35-1.69-3.891c0.607-1.542,2.349-2.299,3.892-1.69l16.4,6.467    c1.161,0.458,1.917,1.587,1.899,2.835c-0.018,1.248-0.807,2.354-1.981,2.778l-12.057,4.35    C173.472,94.968,173.128,95.025,172.79,95.025z" style="fill:#222433;"/>
	</g>
	<g>
		<path d="M243.245,132.803c-7.7,0-15.748-6.424-16.262-18.728c-0.035-0.832,0.278-1.64,0.862-2.232    s1.386-0.913,2.221-0.892l25.157,0.719c0.799,0.023,1.556,0.364,2.103,0.946s0.838,1.36,0.81,2.158    c-0.438,12.422-7.772,18.006-14.846,18.029C243.274,132.803,243.259,132.803,243.245,132.803z M233.366,117.047    c1.33,6.422,5.693,9.756,9.878,9.756c0.008,0,0.017,0,0.025,0c4.394-0.014,7.579-3.546,8.564-9.228L233.366,117.047z" style="fill:#222433;"/>
	</g>
	<g>
		<path d="M161.944,338.969c-0.588,0-1.182-0.172-1.702-0.532c-1.364-0.941-1.706-2.81-0.764-4.173l27.79-40.24    c0.943-1.364,2.813-1.705,4.173-0.764c1.364,0.941,1.706,2.81,0.764,4.173l-27.79,40.24    C163.833,338.516,162.896,338.969,161.944,338.969z" style="fill:#222433;"/>
	</g>
	<g>
		<path d="M304.07,290.759c-0.106,0-0.212-0.006-0.319-0.017c-1.648-0.174-2.842-1.651-2.668-3.299l3.17-29.98    c0.174-1.648,1.66-2.841,3.299-2.668c1.648,0.174,2.842,1.651,2.668,3.299l-3.17,29.98    C306.887,289.614,305.585,290.759,304.07,290.759z" style="fill:#222433;"/>
	</g>
	<g>
		<path d="M180.857,403.188c-31.53-3.71-60.69,30.52-43.11,59.75c0.24,0.4,0.48,0.79,0.72,1.16    c8.2,12.7,14.33,26.87,5.45,47.11c-6.27,14.27-17.86,34.67-4.16,40.13c9.5,3.78,24-19.53,35.34-36.32    c-4.64,28.76-10.67,66.43,2.2,69.29s19.79-24.11,25.54-61.44c0.88,42-4.46,64.33,8.23,65.62c20.93,2.11,24.21-84.08,17.36-114.16    c0,0-1.46-7.2-5.36-33.37C219.077,414.198,197.407,405.138,180.857,403.188z" style="fill:#FFFFFF;"/>
		<path d="M211.792,591.525c-0.361,0-0.704-0.019-1.027-0.052c-8.575-0.872-10.025-9.324-10.502-12.101    c-0.967-5.633-0.891-13.477-0.677-23.292c-4.063,16.541-8.512,25.578-14.092,29.393c-2.733,1.868-5.709,2.461-8.848,1.764    c-12.825-2.85-11.451-26.777-6.597-59.337c-9.634,14.142-19.356,26.854-28.127,26.856c-1.108,0-2.198-0.202-3.273-0.63    c-3.545-1.413-5.993-3.759-7.277-6.974c-3.376-8.45,2.348-20.885,7.398-31.856c0.841-1.828,1.659-3.604,2.401-5.293    c7.845-17.881,3.585-30.632-5.224-44.276c-0.254-0.392-0.513-0.812-0.771-1.242c-8.06-13.401-7.658-28.871,1.103-42.442    c9.732-15.075,27.787-23.849,44.929-21.832h0c11.88,1.4,40.029,8.129,44.826,40.307c3.832,25.714,5.319,33.145,5.333,33.217    c5.869,25.766,4.592,96.022-10.704,113.333C217.504,590.641,214.243,591.525,211.792,591.525z M202.834,519.868    c0.066,0,0.133,0.002,0.2,0.007c1.552,0.103,2.769,1.375,2.802,2.931c0.244,11.629,0.018,21.559-0.182,30.32    c-0.5,21.998-0.461,31.75,5.715,32.378c0.605,0.062,2.45,0.247,4.797-2.411c13.119-14.847,15.511-80.979,9.334-108.098    c-0.075-0.367-1.535-7.645-5.402-33.594c-4.187-28.082-29.084-33.994-39.594-35.232h0c-14.917-1.757-30.668,5.931-39.187,19.127    c-7.472,11.575-7.837,24.732-1.001,36.097c0.223,0.37,0.443,0.73,0.666,1.072c8.536,13.22,15.128,28.416,5.681,49.949    c-0.756,1.721-1.588,3.53-2.445,5.39c-4.32,9.385-9.696,21.065-7.276,27.122c0.668,1.673,1.916,2.825,3.925,3.626    c6.443,2.57,20.451-18.355,28.817-30.854c0.994-1.486,1.971-2.945,2.926-4.359c0.788-1.167,2.281-1.629,3.591-1.11    c1.309,0.518,2.082,1.877,1.857,3.267c-2.208,13.681-4.955,30.708-5.43,43.987c-0.64,17.881,3.058,21.394,5.319,21.897    c1.494,0.331,2.816,0.058,4.16-0.86c8.829-6.036,14.367-36.054,17.764-58.108C200.098,520.94,201.365,519.868,202.834,519.868z" style="fill:#222433;"/>
	</g>
	<g>
		<path d="M684.603,196.764c15.837-7.691,7.954-8.102,21.59-22.721l28.848-33.156    c18.528-21.16-8.868-18.094-18.285-11.41l-31.991,20.525c-23.45,2.23-34.709,1.717-58.829,7.337    c-29.48,6.86-26.75,52.92-11.63,69.76c11.57,12.816,29.676,17.484,46,11.86c6.9-2.47,12.78-5.45,18.78-7.65l0.17-0.06    c4.688-1.855,9.661-2.89,14.7-3.06c2.654-0.044,5.306,0.194,7.91,0.71l0,0c5.93,1.16,12.6,3.81,20.6,8.62    c13.34,8.05,32.08,22.16,39.26,9.28c2.45-4.39-1.46-10.85-7.86-17.85l-24.825-20.309l40.044,8.754    c15.294,3.024,27.669,3.296,30.16-3.585c4.49-12.4-23.577-19.545-46.469-26.928c24.585,3.484,52.039,6.398,54.949-6.022    c2.844-12.158-2.648-16.844-32.968-22.344l-48.521-7.51" style="fill:#FFFFFF;"/>
		<path d="M752.997,254.997c-8.253,0.001-18.221-6.253-27.15-11.854c-1.701-1.067-3.354-2.104-4.931-3.056    c-7.306-4.393-13.727-7.091-19.626-8.245c-2.399-0.475-4.844-0.697-7.284-0.655c-4.657,0.158-9.266,1.117-13.646,2.85    c-0.034,0.014-0.069,0.027-0.104,0.039l-0.17,0.06c-2.689,0.986-5.391,2.152-8.252,3.386c-3.317,1.431-6.748,2.911-10.516,4.26    c-17.527,6.039-36.84,1.059-49.238-12.674c-10.623-11.832-14.885-35.342-9.505-52.414c3.782-12.001,11.625-19.705,22.682-22.278    c18.035-4.202,29.023-5.022,42.935-6.061c4.809-0.359,9.774-0.729,15.567-1.272l31.322-20.095    c6.393-4.494,21.93-8.485,27.441-2.383c3.626,4.016,1.869,10.159-5.223,18.258l-5.228,6.009l43.147,6.678    c21.402,3.881,30.317,7.318,34.143,13.148c2.804,4.273,2.161,9.108,1.288,12.844c-2.245,9.578-14.445,11.878-30.254,11.246    c10.297,3.869,18.41,8.169,21.238,13.884c1.299,2.624,1.445,5.368,0.435,8.158c-3.678,10.157-20.917,8.007-33.563,5.507    l-27.875-6.094l15.137,12.383c0.112,0.092,0.217,0.191,0.314,0.298c5.378,5.882,12.085,14.493,8.266,21.336    c-1.856,3.33-4.499,5.455-7.853,6.315C755.371,254.864,754.201,254.997,752.997,254.997z M694.548,225.184    c2.676,0,5.316,0.259,7.901,0.771c6.588,1.289,13.644,4.231,21.563,8.992c1.609,0.971,3.292,2.027,5.023,3.113    c8.753,5.491,19.646,12.324,25.967,10.704c1.746-0.448,3.05-1.536,4.104-3.426c0.8-1.433,0.904-5.178-7.309-14.206l-24.656-20.171    c-1.074-0.879-1.405-2.379-0.801-3.628c0.604-1.249,1.984-1.92,3.341-1.625l40.044,8.755c21.18,4.186,25.822,0.748,26.699-1.676    c0.45-1.242,0.397-2.307-0.17-3.454c-3.309-6.683-21.138-12.277-36.868-17.213c-2.539-0.796-5.065-1.589-7.531-2.384    c-1.482-0.478-2.352-2.011-2.002-3.529s1.804-2.518,3.344-2.297c15.938,2.258,49.102,6.958,51.607-3.737    c0.904-3.865,0.766-6.313-0.461-8.184c-2.677-4.08-11.404-7.128-30.121-10.523l-46.808-7.244l-18.958,21.79    c-0.022,0.026-0.046,0.052-0.069,0.077c-5.343,5.727-7.153,9.04-8.607,11.702c-2.479,4.538-4.104,6.93-13.867,11.671    c-1.491,0.723-3.284,0.103-4.009-1.388c-0.724-1.49-0.102-3.285,1.388-4.009c8.47-4.113,9.276-5.588,11.222-9.15    c1.528-2.796,3.618-6.623,9.449-12.88l19.984-22.969c0.016-0.019,0.033-0.038,0.05-0.057l8.78-10.092    c5.68-6.487,5.943-9.568,5.29-10.292c-2.165-2.396-13.643-0.914-19.575,3.297c-0.038,0.027-0.077,0.053-0.116,0.078    l-31.991,20.525c-0.402,0.258-0.86,0.416-1.336,0.462c-6.166,0.586-11.375,0.975-16.412,1.351    c-13.653,1.019-24.437,1.824-42.021,5.921c-11.214,2.61-16.153,11.358-18.32,18.238c-4.731,15.013-0.957,36.351,8.242,46.596    c10.778,11.939,27.575,16.271,42.791,11.028c3.555-1.273,6.896-2.714,10.128-4.108c2.94-1.268,5.716-2.466,8.596-3.522    l0.151-0.053c5.006-1.974,10.272-3.067,15.651-3.248C694.086,225.186,694.318,225.184,694.548,225.184z" style="fill:#222433;"/>
	</g>
	<g>
		<path d="M541.06,802.306c-0.15,0-0.302-0.011-0.454-0.035l-178.69-27.18c-0.833-0.127-1.576-0.599-2.044-1.3    c-0.468-0.702-0.62-1.567-0.417-2.386l51.889-209.828l-137.493-51.743c-1.551-0.583-2.335-2.313-1.751-3.864    s2.313-2.335,3.864-1.751l139.985,52.678c1.426,0.534,2.226,2.052,1.86,3.53l-51.74,209.228l172.725,26.273l63.469-260.122    c0.014-0.058,0.03-0.115,0.047-0.171c8.578-36.984-7.525-74.831-40.117-94.293L298.188,330.753    c-1.528-0.64-2.248-2.398-1.608-3.926s2.397-2.248,3.926-1.608l264.2,110.67c0.128,0.054,0.252,0.116,0.373,0.188    c35.03,20.806,52.322,61.44,43.029,101.114c-0.018,0.076-0.039,0.152-0.062,0.226l-64.074,262.601    C543.639,801.377,542.421,802.306,541.06,802.306z" style="fill:#222433;"/>
	</g>
</g>

            </g>
        </g>
    </g>
    
    <!-- ITEM 2 -->
    <g>
        <defs>
            <clipPath id="clip-path-id-viewbox-item-2">
                <rect x="0.0" y="0.0" width="600.86" height="639.99"/>
            </clipPath>
        </defs>
        <g transform="translate(650.0 75.0) rotate(0.0 212.5 226.5) scale(0.7073195087041907 0.707823559743121)">
            <g clip-path="url(#clip-path-id-viewbox-item-2)" transform="translate(-0.0 -0.0)">
                

<g>
	<g>
		<polygon points="597.86,636.99 597.86,3 3,3 3,140.51 3,636.99   " style="fill:#FFFFFF;"/>
		<path d="M597.86,639.99H3c-1.657,0-3-1.343-3-3V3c0-1.657,1.343-3,3-3h594.86c1.657,0,3,1.343,3,3v633.99    C600.86,638.647,599.517,639.99,597.86,639.99z M6,633.99h588.86V6H6V633.99z" style="fill:#222433;"/>
	</g>
	<g>
		<path d="M205.43,227.85h190c24.809,0,44.92,20.111,44.92,44.92v97.46c0,24.809-20.111,44.92-44.92,44.92h-190    c-24.809,0-44.92-20.111-44.92-44.92v-97.46C160.51,247.961,180.621,227.85,205.43,227.85z" style="fill:#FFFFFF;"/>
		<path d="M395.43,418.15h-190c-26.423,0-47.92-21.497-47.92-47.92v-97.46c0-26.423,21.497-47.92,47.92-47.92h190    c26.423,0,47.92,21.497,47.92,47.92v97.46C443.35,396.653,421.853,418.15,395.43,418.15z M205.43,230.85    c-23.115,0-41.92,18.805-41.92,41.92v97.46c0,23.115,18.805,41.92,41.92,41.92h190c23.115,0,41.92-18.805,41.92-41.92v-97.46    c0-23.115-18.805-41.92-41.92-41.92H205.43z" style="fill:#222433;"/>
	</g>
	<g>
		<polygon points="268.26,358.71 268.26,284.28 342.69,321.5   " style="fill:#82B1FF;"/>
	</g>
	<g>
		<path d="M597.86,76.64H3c-1.657,0-3-1.343-3-3s1.343-3,3-3h594.86c1.657,0,3,1.343,3,3S599.517,76.64,597.86,76.64z" style="fill:#222433;"/>
	</g>
	<g>
		<circle cx="67.52" cy="38.32" r="11.79" style="fill:#82B1FF;"/>
	</g>
	<g>
		<circle cx="100.52" cy="38.32" r="11.79" style="fill:#82B1FF;"/>
	</g>
</g>
<g>
	<circle cx="34.52" cy="38.32" r="11.79" style="fill:#82B1FF;"/>
</g>

            </g>
        </g>
    </g>
    
    <!-- ITEM 3 -->
    <g>
        <defs>
            <clipPath id="clip-path-id-viewbox-item-3">
                <rect x="0.0" y="0.0" width="73.356" height="73.38"/>
            </clipPath>
        </defs>
        <g transform="translate(1123.0 188.0) rotate(0.0 15.0 15.0) scale(0.40896450188123673 0.40883074407195424)">
            <g clip-path="url(#clip-path-id-viewbox-item-3)" transform="translate(-0.0 -0.0)">
                

<g>
	<path d="M38.808,4.595l5.44,18c0.95,3.128,3.4,5.575,6.53,6.52l18,5.45c1.174,0.355,1.837,1.594,1.483,2.767   c-0.215,0.711-0.771,1.268-1.483,1.483l-18,5.45c-3.13,0.945-5.58,3.392-6.53,6.52l-5.44,18c-0.346,1.176-1.579,1.85-2.756,1.504   c-0.725-0.213-1.291-0.78-1.504-1.504l-5.45-18c-0.943-3.129-3.391-5.577-6.52-6.52l-18-5.45c-1.174-0.355-1.837-1.594-1.483-2.767   c0.215-0.711,0.771-1.268,1.483-1.483l18-5.45c3.129-0.943,5.577-3.391,6.52-6.52l5.45-18c0.346-1.176,1.579-1.85,2.756-1.504   C38.028,3.303,38.595,3.87,38.808,4.595z" style="fill:#5a38fd;"/>
	<path d="M36.685,73.382c-0.494,0-0.991-0.071-1.479-0.214c-1.712-0.503-3.034-1.825-3.537-3.537l-5.443-17.976   c-0.656-2.175-2.343-3.862-4.515-4.517L3.709,41.686c-1.333-0.403-2.431-1.302-3.089-2.531c-0.659-1.229-0.799-2.641-0.396-3.976   c0.506-1.675,1.81-2.979,3.486-3.486l17.999-5.45c2.175-0.656,3.862-2.343,4.517-4.515l5.451-18.003   c0.804-2.738,3.711-4.324,6.472-3.514c1.708,0.502,3.027,1.818,3.533,3.524l5.437,17.991c0.659,2.17,2.352,3.859,4.526,4.516   l18.002,5.45c1.333,0.403,2.431,1.302,3.089,2.531c0.659,1.229,0.799,2.641,0.396,3.976c-0.506,1.675-1.809,2.979-3.486,3.486   l-17.999,5.45c-2.176,0.657-3.869,2.347-4.529,4.521L41.68,69.653c-0.386,1.315-1.276,2.42-2.5,3.088   C38.401,73.166,37.548,73.382,36.685,73.382z M35.933,67.929c-0.001,0.004-0.002,0.008-0.003,0.012L35.933,67.929z M37.416,67.905   l0.003,0.011C37.418,67.912,37.417,67.908,37.416,67.905z M7.912,36.69l15.535,4.704c4.099,1.236,7.286,4.423,8.523,8.525   l4.708,15.546l4.699-15.548c1.246-4.101,4.436-7.286,8.535-8.524l15.533-4.703l-15.535-4.704c-4.097-1.237-7.287-4.422-8.532-8.519   l-4.7-15.552l-4.708,15.549c-1.236,4.099-4.423,7.286-8.525,8.523L7.912,36.69z M67.909,37.436h0.01H67.909z M37.427,5.441   l-0.004,0.012C37.424,5.449,37.425,5.445,37.427,5.441z" style="fill:#5a38fd;"/>
</g>

            </g>
        </g>
    </g>
    
    <!-- ITEM 4 -->
    <g>
        <defs>
            <clipPath id="clip-path-id-viewbox-item-4">
                <rect x="0.0" y="0.0" width="151.8" height="473.64"/>
            </clipPath>
        </defs>
        <g transform="translate(942.0 346.0) rotate(6.393819607979631 52.5 163.5) scale(0.691699604743083 0.6903977704585762)">
            <g clip-path="url(#clip-path-id-viewbox-item-4)" transform="translate(-0.0 -0.0)">
                

<g>
	<g>
		<path d="M92.205,66.765c0.76-0.513,1.484-1.099,2.157-1.771l25.47-25.47c5.659-5.659,5.659-14.833,0-20.492    s-14.833-5.659-20.492,0L88.36,30.011V14.49C88.36,6.487,81.873,0,73.87,0S59.38,6.487,59.38,14.49v15.522L48.395,19.027    c-5.659-5.659-14.833-5.659-20.492,0s-5.659,14.833,0,20.492l25.47,25.47c1.002,1.002,2.117,1.817,3.3,2.464    C24.066,75.967,0,105.615,0,140.89c0,41.918,33.982,75.9,75.9,75.9s75.9-33.982,75.9-75.9    C151.8,104.571,126.284,74.228,92.205,66.765z" style="fill:#5a38fd;"/>
	</g>
	<g>
		<path d="M73.87,473.64c-1.657,0-3-1.343-3-3V140.89c0-1.657,1.343-3,3-3s3,1.343,3,3v329.75    C76.87,472.297,75.527,473.64,73.87,473.64z" style="fill:#222433;"/>
	</g>
</g>

            </g>
        </g>
    </g>
    
    <!-- ITEM 5 -->
    <g>
        <defs>
            <clipPath id="clip-path-id-viewbox-item-5">
                <rect x="0.0" y="0.0" width="158.729" height="309.907"/>
            </clipPath>
        </defs>
        <g transform="translate(1032.0 446.0) rotate(15.585635744495201 59.5 117.5) scale(0.7497054728499517 0.7582920037301514)">
            <g clip-path="url(#clip-path-id-viewbox-item-5)" transform="translate(-0.0 -0.0)">
                

<g>
	<g>
		<path d="M124.952,66.557l-94.45-5.32C14.433,60.331,2.141,46.571,3.047,30.502    C3.953,14.433,17.713,2.141,33.782,3.047l94.44,5.32c16.069,0.903,28.363,14.661,27.46,30.73    C154.779,55.166,141.021,67.46,124.952,66.557L124.952,66.557z M32.472,26.317c-3.218-0.122-5.925,2.387-6.047,5.604    c-0.119,3.137,2.267,5.805,5.397,6.036l94.44,5.32c3.218,0.122,5.925-2.387,6.047-5.604c0.119-3.137-2.267-5.805-5.397-6.036    L32.472,26.317z" style="fill:#FFFFFF;"/>
		<path d="M126.607,69.604c-0.604,0-1.211-0.017-1.822-0.051h-0.002l-94.449-5.32    c-8.572-0.483-16.442-4.275-22.162-10.678c-5.719-6.403-8.603-14.649-8.119-23.221C0.534,21.762,4.326,13.891,10.73,8.172    s14.647-8.605,23.221-8.12l94.44,5.32c8.571,0.482,16.441,4.273,22.162,10.674c5.721,6.402,8.606,14.648,8.124,23.22    C157.717,56.349,143.51,69.604,126.607,69.604z M125.119,63.562c14.408,0.816,26.758-10.241,27.567-24.633    c0.392-6.971-1.955-13.678-6.607-18.885c-4.652-5.207-11.055-8.29-18.025-8.682l-94.441-5.32    c-6.968-0.397-13.678,1.952-18.886,6.604C9.52,17.298,6.435,23.699,6.042,30.671C5.65,37.642,7.994,44.35,12.646,49.557    c4.652,5.208,11.054,8.292,18.025,8.685L125.119,63.562L125.119,63.562z M126.491,46.281c-0.114,0-0.229-0.002-0.344-0.007    l-94.495-5.323c-4.816-0.355-8.406-4.37-8.226-9.145c0.09-2.357,1.092-4.538,2.821-6.141c1.729-1.603,3.965-2.441,6.338-2.347    c0.018,0.001,0.036,0.001,0.055,0.002l94.439,5.32c4.817,0.355,8.407,4.37,8.227,9.145c-0.09,2.357-1.092,4.538-2.821,6.141    C130.84,45.453,128.723,46.281,126.491,46.281z M32.248,29.313c-0.716,0-1.394,0.265-1.921,0.754    c-0.555,0.514-0.876,1.213-0.904,1.968c-0.059,1.531,1.092,2.817,2.619,2.93l94.389,5.317c0.704,0.029,1.422-0.241,1.976-0.755    c0.555-0.514,0.876-1.213,0.904-1.968c0.059-1.53-1.093-2.817-2.62-2.93l-94.355-5.315C32.306,29.313,32.277,29.313,32.248,29.313    z" style="fill:#222433;"/>
	</g>
	<g>
		<path d="M114.642,144.297c-10.74-0.6-40.22-21.78-40.22-21.78s31.67-17.73,42.42-17.12    c10.742,0.607,18.958,9.808,18.35,20.55C134.585,136.689,125.384,144.904,114.642,144.297L114.642,144.297z" style="fill:#5A38FD;"/>
	</g>
	<g>
		<path d="M32.012,139.647c10.74,0.6,42.41-17.13,42.41-17.13s-29.47-21.17-40.22-21.78    c-10.732-0.828-20.104,7.2-20.932,17.932s7.2,20.104,17.932,20.932C31.472,139.622,31.742,139.637,32.012,139.647L32.012,139.647z    " style="fill:#5A38FD;"/>
	</g>
	<g>
		<path d="M64.045,309.907c-0.057,0-0.114-0.001-0.172-0.005c-1.654-0.093-2.92-1.51-2.826-3.164l13.682-243.01    c0.094-1.654,1.508-2.916,3.164-2.827c1.654,0.093,2.92,1.51,2.826,3.164l-13.682,243.01    C66.948,308.672,65.624,309.907,64.045,309.907z" style="fill:#222433;"/>
	</g>
</g>

            </g>
        </g>
    </g>
    
    <!-- ITEM 6 -->
    <g>
        <defs>
            <clipPath id="clip-path-id-viewbox-item-6">
                <rect x="0.0" y="0.0" width="68.0" height="30.5"/>
            </clipPath>
        </defs>
        <g transform="translate(345.0 72.0) rotate(79.32373911587887 22.5 10.5) scale(0.6617647058823529 0.6885245901639344)">
            <g clip-path="url(#clip-path-id-viewbox-item-6)" transform="translate(-0.0 -0.0)">
                <path d="M18.3,28.3a2.993,2.993,0,0,1-2.242-1.006l-15.3-17.2A3,3,0,1,1,5.242,6.106l15.3,17.2A3,3,0,0,1,18.3,28.3Z" fill="#222433"/><path d="M36.7,26.7l-.119,0A3,3,0,0,1,33.7,23.584l.8-20.7a3,3,0,1,1,6,.232l-.8,20.7A3,3,0,0,1,36.7,26.7Z" fill="#222433"/><path d="M52.7,30.5a3,3,0,0,1-2.413-4.779l12.3-16.7a3,3,0,1,1,4.83,3.558l-12.3,16.7A2.992,2.992,0,0,1,52.7,30.5Z" fill="#222433"/>
            </g>
        </g>
    </g>
    
    <!-- ITEM 7 -->
    <g>
        <defs>
            <clipPath id="clip-path-id-viewbox-item-7">
                <rect x="0.0" y="0.0" width="73.356" height="73.38"/>
            </clipPath>
        </defs>
        <g transform="translate(1175.0 98.0) rotate(0.0 22.0 22.0) scale(0.5998146027591472 0.5996184246388662)">
            <g clip-path="url(#clip-path-id-viewbox-item-7)" transform="translate(-0.0 -0.0)">
                

<g>
	<path d="M38.808,4.595l5.44,18c0.95,3.128,3.4,5.575,6.53,6.52l18,5.45c1.174,0.355,1.837,1.594,1.483,2.767   c-0.215,0.711-0.771,1.268-1.483,1.483l-18,5.45c-3.13,0.945-5.58,3.392-6.53,6.52l-5.44,18c-0.346,1.176-1.579,1.85-2.756,1.504   c-0.725-0.213-1.291-0.78-1.504-1.504l-5.45-18c-0.943-3.129-3.391-5.577-6.52-6.52l-18-5.45c-1.174-0.355-1.837-1.594-1.483-2.767   c0.215-0.711,0.771-1.268,1.483-1.483l18-5.45c3.129-0.943,5.577-3.391,6.52-6.52l5.45-18c0.346-1.176,1.579-1.85,2.756-1.504   C38.028,3.303,38.595,3.87,38.808,4.595z" style="fill:#FFFFFF;"/>
	<path d="M36.685,73.382c-0.494,0-0.991-0.071-1.479-0.214c-1.712-0.503-3.034-1.825-3.537-3.537l-5.443-17.976   c-0.656-2.175-2.343-3.862-4.515-4.517L3.709,41.686c-1.333-0.403-2.431-1.302-3.089-2.531c-0.659-1.229-0.799-2.641-0.396-3.976   c0.506-1.675,1.81-2.979,3.486-3.486l17.999-5.45c2.175-0.656,3.862-2.343,4.517-4.515l5.451-18.003   c0.804-2.738,3.711-4.324,6.472-3.514c1.708,0.502,3.027,1.818,3.533,3.524l5.437,17.991c0.659,2.17,2.352,3.859,4.526,4.516   l18.002,5.45c1.333,0.403,2.431,1.302,3.089,2.531c0.659,1.229,0.799,2.641,0.396,3.976c-0.506,1.675-1.809,2.979-3.486,3.486   l-17.999,5.45c-2.176,0.657-3.869,2.347-4.529,4.521L41.68,69.653c-0.386,1.315-1.276,2.42-2.5,3.088   C38.401,73.166,37.548,73.382,36.685,73.382z M35.933,67.929c-0.001,0.004-0.002,0.008-0.003,0.012L35.933,67.929z M37.416,67.905   l0.003,0.011C37.418,67.912,37.417,67.908,37.416,67.905z M7.912,36.69l15.535,4.704c4.099,1.236,7.286,4.423,8.523,8.525   l4.708,15.546l4.699-15.548c1.246-4.101,4.436-7.286,8.535-8.524l15.533-4.703l-15.535-4.704c-4.097-1.237-7.287-4.422-8.532-8.519   l-4.7-15.552l-4.708,15.549c-1.236,4.099-4.423,7.286-8.525,8.523L7.912,36.69z M67.909,37.436h0.01H67.909z M37.427,5.441   l-0.004,0.012C37.424,5.449,37.425,5.445,37.427,5.441z" style="fill:#222433;"/>
</g>

            </g>
        </g>
    </g>
    
    <!-- ITEM 8 -->
    <g>
        <defs>
            <clipPath id="clip-path-id-viewbox-item-8">
                <rect x="0.0" y="0.0" width="75.039" height="84.27"/>
            </clipPath>
        </defs>
        <g transform="translate(788.0 600.0) rotate(0.0 -31.5 35.5) scale(-0.8395634270179506 0.8425299632134805)">
            <g clip-path="url(#clip-path-id-viewbox-item-8)" transform="translate(-0.0 -0.0)">
                

<g>
	<path d="M20.739,84.27L0.679,26.7C-1.53,20.346,1.83,13.405,8.184,11.196c0.137-0.048,0.276-0.093,0.415-0.136l0,0   c6.411-1.987,13.221,1.592,15.22,8l4.25,13.69V10.82C28.063,4.85,32.898,0.006,38.869,0c0.013,0,0.027,0,0.04,0l0,0   c5.97-0.005,10.814,4.83,10.82,10.8c0,0.007,0,0.013,0,0.02V46l3.37-4.58c3.644-4.941,10.4-6.391,15.75-3.38l0,0   c5.844,3.287,7.917,10.689,4.63,16.533c-0.003,0.006-0.007,0.012-0.01,0.017l-16.73,29.68H20.739z" style="fill:#5A38FD;"/>
</g>

            </g>
        </g>
    </g>
    
    <!-- ITEM 9 -->
    <g>
        <defs>
            <clipPath id="clip-path-id-viewbox-item-9">
                <rect x="0.0" y="0.0" width="59.624" height="59.622"/>
            </clipPath>
        </defs>
        <g transform="translate(106.0 373.0) rotate(0.0 -20.0 20.0) scale(-0.6708707902857909 0.6708932944215222)">
            <g clip-path="url(#clip-path-id-viewbox-item-9)" transform="translate(-0.0 -0.0)">
                

<g>
	<g>
		<path d="M9.864,0h11.91c5.44-0.001,9.851,4.408,9.852,9.848c0,1.532-0.357,3.043-1.042,4.412l-14.77,29.55    L1.045,14.26C-1.391,9.396,0.578,3.478,5.442,1.042C6.815,0.355,8.329-0.002,9.864,0z" style="fill:#82B1FF;"/>
	</g>
	<g>
		<path d="M59.624,37.85v11.91c0.007,5.44-4.398,9.856-9.838,9.862c-1.535,0.002-3.05-0.355-4.422-1.042l-29.55-14.77    l29.55-14.78c4.873-2.43,10.794-0.449,13.224,4.424C59.269,34.819,59.624,36.324,59.624,37.85z" style="fill:#82B1FF;"/>
	</g>
</g>

            </g>
        </g>
    </g>
    
    <!-- ITEM 10 -->
    <g>
        <defs>
            <clipPath id="clip-path-id-viewbox-item-10">
                <rect x="0.0" y="0.0" width="158.232" height="293.149"/>
            </clipPath>
        </defs>
        <g transform="translate(164.0 462.0) rotate(0.0 -57.5 106.0) scale(-0.726780929268416 0.7231817266987095)">
            <g clip-path="url(#clip-path-id-viewbox-item-10)" transform="translate(-0.0 -0.0)">
                

<g>
	<g>
		<path d="M149.068,39.169c-6.06-3.672-13.95-1.735-17.621,4.326c-0.003,0.005-0.006,0.01-0.009,0.015    c3.673-6.075,1.725-13.977-4.35-17.65c-6.075-3.673-13.977-1.725-17.65,4.35l-33.82,55.57l8.83-64.45    c0.867-7.038-4.136-13.446-11.174-14.313c-6.878-0.847-13.187,3.916-14.256,10.763c1.07-7.01-3.745-13.56-10.755-14.63    s-13.56,3.745-14.63,10.755c-0.016,0.105-0.031,0.21-0.044,0.315l-1.19,8.47l-8,57.15c-2.833,20.208,6.492,40.191,23.8,51    l-0.09,0.13l0,0c6.23,3.716,13.132,6.17,20.31,7.22l0,0v-0.16c20.237,2.538,40.073-7.069,50.63-24.52l29.87-49.37l4.43-7.32    c3.694-6.047,1.787-13.943-4.259-17.637C149.082,39.178,149.075,39.173,149.068,39.169z" style="fill:#FFFFFF;"/>
		<path d="M74.838,141.431c-1.922,0-3.854-0.102-5.791-0.309c-0.345,0.075-0.705,0.088-1.063,0.035    c-7.606-1.112-14.81-3.673-21.413-7.611c-0.309-0.185-0.58-0.421-0.801-0.696c-17.755-11.541-27.292-32.398-24.343-53.427    l9.239-65.969c1.318-8.636,9.413-14.585,18.049-13.271c5.215,0.796,9.451,4.065,11.698,8.432    c3.329-3.379,8.135-5.201,13.227-4.576c8.669,1.067,14.853,8.988,13.785,17.657l-6.88,50.216l26.329-43.262    c4.518-7.473,14.283-9.879,21.765-5.358c4.519,2.732,7.187,7.377,7.594,12.276c0.775-0.327,1.581-0.594,2.413-0.798    c4.107-1.009,8.36-0.357,11.976,1.834c0.009,0.006,0.019,0.011,0.028,0.017c0.003,0.002,0.011,0.007,0.014,0.009l-0.001,0.001    c7.456,4.617,9.778,14.333,5.245,21.753l-34.293,56.679C111.644,131.545,93.788,141.43,74.838,141.431z M68.418,135.029    c0.124,0,0.249,0.008,0.373,0.023c19.038,2.387,37.759-6.678,47.69-23.096l34.301-56.69c2.832-4.636,1.368-10.699-3.257-13.524    l1.543-2.573l-1.554,2.566c-2.246-1.36-4.886-1.766-7.437-1.139c-2.545,0.625-4.696,2.202-6.056,4.441    c-0.005,0.008-0.01,0.017-0.015,0.025c-0.856,1.416-2.697,1.872-4.115,1.018c-1.305-0.786-1.798-2.409-1.202-3.77    c0.052-0.12,0.113-0.237,0.183-0.353c2.811-4.65,1.315-10.72-3.335-13.531c-4.651-2.811-10.72-1.315-13.531,3.335L78.181,87.339    c-0.739,1.214-2.228,1.745-3.567,1.267c-1.339-0.476-2.16-1.826-1.968-3.234l8.83-64.45c0.316-2.568-0.398-5.146-2.015-7.217    s-3.945-3.39-6.553-3.711c-5.3-0.657-10.101,2.97-10.925,8.249c-0.255,1.635-1.788,2.755-3.422,2.502    c-1.635-0.252-2.758-1.782-2.508-3.417c0.819-5.364-2.879-10.394-8.243-11.212c-5.362-0.821-10.393,2.878-11.212,8.243    l-1.229,8.75l-8,57.149c-2.666,19.013,6.134,37.87,22.418,48.04c0.254,0.159,0.481,0.353,0.674,0.575    c5.422,3.104,11.282,5.188,17.445,6.204C68.074,135.044,68.245,135.029,68.418,135.029z" style="fill:#222433;"/>
	</g>
	<g>
		<path d="M105.835,88.82c-0.529,0-1.064-0.14-1.55-0.434c-1.417-0.858-1.872-2.702-1.014-4.12l26.13-43.19    c0.858-1.417,2.702-1.871,4.12-1.014c1.417,0.858,1.872,2.702,1.014,4.12l-26.13,43.19C107.841,88.304,106.85,88.82,105.835,88.82    z" style="fill:#222433;"/>
	</g>
	<g>
		<path d="M3,293.15c-0.333,0-0.673-0.056-1.005-0.174c-1.561-0.555-2.377-2.27-1.822-3.832l62.538-175.95    c0.555-1.561,2.271-2.377,3.831-1.822c1.561,0.555,2.377,2.27,1.822,3.832L5.827,291.154C5.39,292.383,4.234,293.15,3,293.15z" style="fill:#222433;"/>
	</g>
	<g>
		<path d="M52.202,69.75c-0.138,0-0.278-0.01-0.419-0.029c-1.641-0.229-2.785-1.746-2.556-3.387l6.99-49.99    c0.229-1.641,1.741-2.782,3.387-2.556c1.641,0.229,2.785,1.746,2.556,3.387l-6.99,49.99C54.959,68.665,53.674,69.75,52.202,69.75z    " style="fill:#222433;"/>
	</g>
	<g>
		<path d="M57.948,138.56c-0.333,0-0.673-0.056-1.005-0.174c-1.561-0.555-2.376-2.271-1.822-3.832l17.7-49.78    c0.555-1.561,2.271-2.377,3.832-1.822c1.561,0.555,2.377,2.271,1.822,3.832l-17.7,49.78    C60.338,137.793,59.182,138.56,57.948,138.56z" style="fill:#222433;"/>
	</g>
</g>

            </g>
        </g>
    </g>
    
</svg>